{"glyphs":{"0":{"ha":608,"x_min":0,"x_max":486,"o":"m 304 426 l 182 426 l 182 547 l 304 547 l 304 426 m 122 122 l 365 122 l 365 851 l 122 851 l 122 122 m 122 0 q 36 36 71 0 q 0 122 0 71 l 0 851 q 36 937 0 901 q 122 972 71 972 l 365 972 q 451 937 415 972 q 486 851 486 901 l 486 122 q 451 36 486 71 q 365 0 415 0 l 122 0 z "},"1":{"ha":365,"x_min":0,"x_max":243,"o":"m 122 851 l 0 851 l 0 972 l 243 972 l 243 0 l 122 0 l 122 851 z "},"2":{"ha":608,"x_min":0,"x_max":486,"o":"m 122 851 l 122 729 l 0 729 l 0 851 q 36 937 0 901 q 122 972 71 972 l 365 972 q 451 937 415 972 q 486 851 486 901 l 486 547 q 451 461 486 497 q 365 426 415 426 l 122 426 l 122 122 l 486 122 l 486 0 l 0 0 l 0 426 q 36 512 0 476 q 122 547 71 547 l 365 547 l 365 851 l 122 851 z "},"3":{"ha":608,"x_min":0,"x_max":486,"o":"m 0 122 l 0 243 l 122 243 l 122 122 l 365 122 l 365 426 l 122 426 l 122 547 l 365 547 l 365 851 l 122 851 l 122 729 l 0 729 l 0 851 q 36 937 0 901 q 122 972 71 972 l 365 972 q 451 937 415 972 q 486 851 486 901 l 486 608 q 451 522 486 557 q 372 486 417 489 q 451 451 417 484 q 486 365 486 415 l 486 122 q 451 36 486 71 q 365 0 415 0 l 122 0 q 36 36 71 0 q 0 122 0 71 z "},"4":{"ha":608,"x_min":0,"x_max":486,"o":"m 0 972 l 122 972 l 122 365 l 365 365 l 365 972 l 486 972 l 486 0 l 365 0 l 365 243 l 0 243 l 0 972 z "},"5":{"ha":608,"x_min":0,"x_max":486,"o":"m 0 122 l 0 243 l 122 243 l 122 122 l 365 122 l 365 426 l 122 426 q 36 461 71 426 q 0 547 0 497 l 0 972 l 486 972 l 486 851 l 122 851 l 122 547 l 365 547 q 451 512 415 547 q 486 426 486 476 l 486 122 q 451 36 486 71 q 365 0 415 0 l 122 0 q 36 36 71 0 q 0 122 0 71 z "},"6":{"ha":608,"x_min":0,"x_max":486,"o":"m 122 122 l 365 122 l 365 486 l 122 486 l 122 122 m 0 122 l 0 851 q 36 937 0 901 q 122 972 71 972 l 365 972 q 451 937 415 972 q 486 851 486 901 l 486 729 l 365 729 l 365 851 l 122 851 l 122 608 l 365 608 q 451 572 415 608 q 486 486 486 537 l 486 122 q 451 36 486 71 q 365 0 415 0 l 122 0 q 36 36 71 0 q 0 122 0 71 z "},"7":{"ha":608,"x_min":0,"x_max":486,"o":"m 0 972 l 486 972 l 486 0 l 365 0 l 365 851 l 122 851 l 122 669 l 0 669 l 0 972 z "},"8":{"ha":608,"x_min":0,"x_max":486,"o":"m 122 0 q 36 36 71 0 q 0 122 0 71 l 0 365 q 36 451 0 415 q 115 486 69 484 q 36 522 69 489 q 0 608 0 557 l 0 851 q 36 937 0 901 q 122 972 71 972 l 365 972 q 451 937 415 972 q 486 851 486 901 l 486 608 q 451 522 486 557 q 372 486 417 489 q 451 451 417 484 q 486 365 486 415 l 486 122 q 451 36 486 71 q 365 0 415 0 l 122 0 m 122 851 l 122 547 l 365 547 l 365 851 l 122 851 m 122 122 l 365 122 l 365 426 l 122 426 l 122 122 z "},"9":{"ha":608,"x_min":0,"x_max":486,"o":"m 365 851 l 122 851 l 122 486 l 365 486 l 365 851 m 486 851 l 486 122 q 451 36 486 71 q 365 0 415 0 l 122 0 q 36 36 71 0 q 0 122 0 71 l 0 243 l 122 243 l 122 122 l 365 122 l 365 365 l 122 365 q 36 400 71 365 q 0 486 0 436 l 0 851 q 36 937 0 901 q 122 972 71 972 l 365 972 q 451 937 415 972 q 486 851 486 901 z "},"\u0000":{"ha":608,"x_min":0,"x_max":486,"o":"m 122 122 l 365 122 l 365 851 l 122 851 l 122 122 m 0 0 l 0 972 l 486 972 l 486 0 l 0 0 z "},"\u001d":{"ha":608,"x_min":0,"x_max":486,"o":"m 122 122 l 365 122 l 365 851 l 122 851 l 122 122 m 0 0 l 0 972 l 486 972 l 486 0 l 0 0 z "}," ":{"ha":365,"x_min":0,"x_max":0,"o":""}," ":{"ha":365,"x_min":0,"x_max":0,"o":""},"�":{"ha":608,"x_min":0,"x_max":486,"o":"m 0 0 l 0 972 l 486 972 l 486 0 l 0 0 z "},"A":{"ha":608,"x_min":0,"x_max":486,"o":"m 122 365 l 365 365 l 365 851 l 122 851 l 122 365 m 122 0 l 0 0 l 0 851 q 36 937 0 901 q 122 972 71 972 l 365 972 q 451 937 415 972 q 486 851 486 901 l 486 0 l 365 0 l 365 243 l 122 243 l 122 0 z "},"a":{"ha":608,"x_min":0,"x_max":486,"o":"m 122 122 l 365 122 l 365 365 l 122 365 l 122 122 m 0 122 l 0 365 q 36 451 0 415 q 122 486 71 486 l 365 486 l 365 608 l 0 608 q 36 694 0 658 q 122 729 71 729 l 365 729 q 451 694 415 729 q 486 608 486 658 l 486 0 l 122 0 q 36 36 71 0 q 0 122 0 71 z "},"B":{"ha":608,"x_min":0,"x_max":486,"o":"m 122 547 l 365 547 l 365 851 l 122 851 l 122 547 m 0 0 l 0 972 l 365 972 q 451 937 415 972 q 486 851 486 901 l 486 608 q 451 522 486 557 q 372 486 417 489 q 451 451 417 484 q 486 365 486 415 l 486 122 q 451 36 486 71 q 365 0 415 0 l 0 0 m 122 122 l 365 122 l 365 426 l 122 426 l 122 122 z "},"b":{"ha":608,"x_min":0,"x_max":486,"o":"m 122 122 l 365 122 l 365 608 l 122 608 l 122 122 m 0 0 l 0 972 l 122 972 l 122 729 l 365 729 q 451 694 415 729 q 486 608 486 658 l 486 122 q 451 36 486 71 q 365 0 415 0 l 0 0 z "},"C":{"ha":608,"x_min":0,"x_max":486,"o":"m 365 304 l 486 304 l 486 122 q 451 36 486 71 q 365 0 415 0 l 122 0 q 36 36 71 0 q 0 122 0 71 l 0 851 q 36 937 0 901 q 122 972 71 972 l 365 972 q 451 937 415 972 q 486 851 486 901 l 486 669 l 365 669 l 365 851 l 122 851 l 122 122 l 365 122 l 365 304 z "},"c":{"ha":608,"x_min":0,"x_max":486,"o":"m 486 608 l 486 486 l 365 486 l 365 608 l 122 608 l 122 122 l 365 122 l 365 243 l 486 243 l 486 122 q 451 36 486 71 q 365 0 415 0 l 122 0 q 36 36 71 0 q 0 122 0 71 l 0 608 q 36 694 0 658 q 122 729 71 729 l 365 729 q 451 694 415 729 q 486 608 486 658 z "},"D":{"ha":608,"x_min":0,"x_max":486,"o":"m 122 122 l 365 122 l 365 851 l 122 851 l 122 122 m 0 0 l 0 972 l 365 972 q 451 937 415 972 q 486 851 486 901 l 486 122 q 451 36 486 71 q 365 0 415 0 l 0 0 z "},"d":{"ha":608,"x_min":0,"x_max":486,"o":"m 486 0 l 122 0 q 36 36 71 0 q 0 122 0 71 l 0 608 q 36 694 0 658 q 122 729 71 729 l 365 729 l 365 972 l 486 972 l 486 0 m 365 122 l 365 608 l 122 608 l 122 122 l 365 122 z "},"E":{"ha":608,"x_min":0,"x_max":486,"o":"m 486 122 l 486 0 l 0 0 l 0 972 l 486 972 l 486 851 l 122 851 l 122 547 l 426 547 l 426 426 l 122 426 l 122 122 l 486 122 z "},"e":{"ha":608,"x_min":0,"x_max":486,"o":"m 122 365 l 365 365 l 365 608 l 122 608 l 122 365 m 0 608 q 36 694 0 658 q 122 729 71 729 l 365 729 q 451 694 415 729 q 486 608 486 658 l 486 243 l 122 243 l 122 122 l 426 122 l 426 0 l 122 0 q 36 36 71 0 q 0 122 0 71 l 0 608 z "},"F":{"ha":608,"x_min":0,"x_max":486,"o":"m 122 0 l 0 0 l 0 972 l 486 972 l 486 851 l 122 851 l 122 547 l 426 547 l 426 426 l 122 426 l 122 0 z "},"f":{"ha":486,"x_min":0,"x_max":365,"o":"m 243 0 l 122 0 l 122 608 l 0 608 l 0 729 l 122 729 l 122 851 q 157 937 122 901 q 243 972 193 972 l 365 972 l 365 851 l 243 851 l 243 729 l 365 729 l 365 608 l 243 608 l 243 0 z "},"G":{"ha":608,"x_min":0,"x_max":486,"o":"m 486 851 l 486 729 l 365 729 l 365 851 l 122 851 l 122 122 l 365 122 l 365 426 l 243 426 l 243 547 l 486 547 l 486 122 q 451 36 486 71 q 365 0 415 0 l 122 0 q 36 36 71 0 q 0 122 0 71 l 0 851 q 36 937 0 901 q 122 972 71 972 l 365 972 q 451 937 415 972 q 486 851 486 901 z "},"g":{"ha":608,"x_min":0,"x_max":486,"o":"m 365 608 l 122 608 l 122 122 l 365 122 l 365 608 m 486 729 l 486 -61 q 451 -147 486 -111 q 365 -182 415 -182 l 61 -182 l 61 -61 l 365 -61 l 365 0 l 122 0 q 36 36 71 0 q 0 122 0 71 l 0 608 q 36 694 0 658 q 122 729 71 729 l 486 729 z "},"H":{"ha":608,"x_min":0,"x_max":486,"o":"m 122 426 l 122 0 l 0 0 l 0 972 l 122 972 l 122 547 l 365 547 l 365 972 l 486 972 l 486 0 l 365 0 l 365 426 l 122 426 z "},"h":{"ha":608,"x_min":0,"x_max":486,"o":"m 122 0 l 0 0 l 0 972 l 122 972 l 122 729 l 365 729 q 451 694 415 729 q 486 608 486 658 l 486 0 l 365 0 l 365 608 l 122 608 l 122 0 z "},"I":{"ha":243,"x_min":0,"x_max":122,"o":"m 122 0 l 0 0 l 0 972 l 122 972 l 122 0 z "},"i":{"ha":243,"x_min":0,"x_max":122,"o":"m 122 0 l 0 0 l 0 729 l 122 729 l 122 0 m 122 851 l 0 851 l 0 972 l 122 972 l 122 851 z "},"J":{"ha":608,"x_min":0,"x_max":486,"o":"m 0 365 l 122 365 l 122 122 l 365 122 l 365 972 l 486 972 l 486 122 q 451 36 486 71 q 365 0 415 0 l 122 0 q 36 36 71 0 q 0 122 0 71 l 0 365 z "},"j":{"ha":486,"x_min":0,"x_max":365,"o":"m 365 851 l 243 851 l 243 972 l 365 972 l 365 851 m 0 122 l 122 122 l 122 -61 l 243 -61 l 243 729 l 365 729 l 365 -61 q 329 -147 365 -111 q 243 -182 293 -182 l 122 -182 q 36 -147 71 -182 q 0 -61 0 -111 l 0 122 z "},"K":{"ha":608,"x_min":0,"x_max":486,"o":"m 122 0 l 0 0 l 0 972 l 122 972 l 122 547 l 365 547 l 365 972 l 486 972 l 486 608 q 451 522 486 557 q 372 486 417 489 q 451 451 417 484 q 486 365 486 415 l 486 0 l 365 0 l 365 425 l 122 425 l 122 0 z "},"k":{"ha":608,"x_min":0,"x_max":486,"o":"m 122 0 l 0 0 l 0 972 l 122 972 l 122 425 l 365 425 l 365 729 l 486 729 l 486 486 q 451 400 486 436 q 372 365 417 367 q 451 329 417 362 q 486 243 486 293 l 486 0 l 365 0 l 365 304 l 122 304 l 122 0 z "},"L":{"ha":608,"x_min":0,"x_max":486,"o":"m 0 972 l 122 972 l 122 122 l 486 122 l 486 0 l 0 0 l 0 972 z "},"l":{"ha":365,"x_min":0,"x_max":243,"o":"m 0 972 l 122 972 l 122 122 l 243 122 l 243 0 l 122 0 q 36 36 71 0 q 0 122 0 71 l 0 972 z "},"M":{"ha":729,"x_min":0,"x_max":608,"o":"m 122 0 l 0 0 l 0 972 l 486 972 q 572 937 537 972 q 608 851 608 901 l 608 0 l 486 0 l 486 851 l 365 851 l 365 0 l 243 0 l 243 851 l 122 851 l 122 0 z "},"m":{"ha":729,"x_min":0,"x_max":608,"o":"m 122 0 l 0 0 l 0 729 l 486 729 q 572 694 537 729 q 608 608 608 658 l 608 0 l 486 0 l 486 608 l 365 608 l 365 0 l 243 0 l 243 608 l 122 608 l 122 0 z "},"N":{"ha":608,"x_min":0,"x_max":486,"o":"m 486 0 l 365 0 l 365 851 l 122 851 l 122 0 l 0 0 l 0 972 l 365 972 q 451 937 415 972 q 486 851 486 901 l 486 0 z "},"n":{"ha":608,"x_min":0,"x_max":486,"o":"m 486 0 l 365 0 l 365 608 l 122 608 l 122 0 l 0 0 l 0 729 l 365 729 q 451 694 415 729 q 486 608 486 658 l 486 0 z "},"O":{"ha":608,"x_min":0,"x_max":486,"o":"m 122 122 l 365 122 l 365 851 l 122 851 l 122 122 m 0 122 l 0 851 q 36 937 0 901 q 122 972 71 972 l 365 972 q 451 937 415 972 q 486 851 486 901 l 486 122 q 451 36 486 71 q 365 0 415 0 l 122 0 q 36 36 71 0 q 0 122 0 71 z "},"o":{"ha":608,"x_min":0,"x_max":486,"o":"m 122 122 l 365 122 l 365 608 l 122 608 l 122 122 m 0 122 l 0 608 q 36 694 0 658 q 122 729 71 729 l 365 729 q 451 694 415 729 q 486 608 486 658 l 486 122 q 451 36 486 71 q 365 0 415 0 l 122 0 q 36 36 71 0 q 0 122 0 71 z "},"P":{"ha":608,"x_min":0,"x_max":486,"o":"m 122 486 l 365 486 l 365 851 l 122 851 l 122 486 m 122 0 l 0 0 l 0 972 l 365 972 q 451 937 415 972 q 486 851 486 901 l 486 486 q 451 400 486 436 q 365 365 415 365 l 122 365 l 122 0 z "},"p":{"ha":608,"x_min":0,"x_max":486,"o":"m 122 122 l 365 122 l 365 608 l 122 608 l 122 122 m 122 -182 l 0 -182 l 0 729 l 365 729 q 451 694 415 729 q 486 608 486 658 l 486 122 q 451 36 486 71 q 365 0 415 0 l 122 0 l 122 -182 z "},"Q":{"ha":608,"x_min":0,"x_max":486,"o":"m 122 122 l 182 122 l 182 304 l 304 304 l 304 122 l 365 122 l 365 851 l 122 851 l 122 122 m 0 122 l 0 851 q 36 937 0 901 q 122 972 71 972 l 365 972 q 451 937 415 972 q 486 851 486 901 l 486 122 q 451 36 486 71 q 365 0 415 0 l 304 0 l 304 -61 l 426 -61 l 426 -182 l 304 -182 q 218 -147 254 -182 q 182 -61 182 -111 l 182 0 l 122 0 q 36 36 71 0 q 0 122 0 71 z "},"q":{"ha":608,"x_min":0,"x_max":486,"o":"m 486 -182 l 365 -182 l 365 0 l 122 0 q 36 36 71 0 q 0 122 0 71 l 0 608 q 36 694 0 658 q 122 729 71 729 l 486 729 l 486 -182 m 365 122 l 365 608 l 122 608 l 122 122 l 365 122 z "},"R":{"ha":608,"x_min":0,"x_max":486,"o":"m 122 486 l 365 486 l 365 851 l 122 851 l 122 486 m 122 0 l 0 0 l 0 972 l 365 972 q 451 937 415 972 q 486 851 486 901 l 486 547 q 451 461 486 497 q 372 426 417 428 q 451 390 417 423 q 486 304 486 354 l 486 0 l 365 0 l 365 365 l 122 365 l 122 0 z "},"r":{"ha":608,"x_min":0,"x_max":486,"o":"m 486 426 l 365 426 l 365 608 l 122 608 l 122 0 l 0 0 l 0 729 l 365 729 q 451 694 415 729 q 486 608 486 658 l 486 426 z "},"S":{"ha":608,"x_min":0,"x_max":486,"o":"m 0 122 l 0 243 l 122 243 l 122 122 l 365 122 l 365 426 l 122 426 q 36 461 71 426 q 0 547 0 497 l 0 851 q 36 937 0 901 q 122 972 71 972 l 365 972 q 451 937 415 972 q 486 851 486 901 l 486 729 l 365 729 l 365 851 l 122 851 l 122 547 l 365 547 q 451 512 415 547 q 486 426 486 476 l 486 122 q 451 36 486 71 q 365 0 415 0 l 122 0 q 36 36 71 0 q 0 122 0 71 z "},"s":{"ha":608,"x_min":0,"x_max":486,"o":"m 0 122 l 0 182 l 122 182 l 122 122 l 365 122 l 365 304 l 122 304 q 36 340 71 304 q 0 426 0 375 l 0 608 q 36 694 0 658 q 122 729 71 729 l 365 729 q 451 694 415 729 q 486 608 486 658 l 486 547 l 365 547 l 365 608 l 122 608 l 122 426 l 365 426 q 451 390 415 426 q 486 304 486 354 l 486 122 q 451 36 486 71 q 365 0 415 0 l 122 0 q 36 36 71 0 q 0 122 0 71 z "},"T":{"ha":608,"x_min":0,"x_max":486,"o":"m 304 851 l 304 0 l 182 0 l 182 851 l 0 851 l 0 972 l 486 972 l 486 851 l 304 851 z "},"t":{"ha":486,"x_min":0,"x_max":365,"o":"m 122 972 l 243 972 l 243 729 l 365 729 l 365 608 l 243 608 l 243 122 l 365 122 l 365 0 l 243 0 q 157 36 193 0 q 122 122 122 71 l 122 608 l 0 608 l 0 729 l 122 729 l 122 972 z "},"U":{"ha":608,"x_min":0,"x_max":486,"o":"m 0 972 l 122 972 l 122 122 l 365 122 l 365 972 l 486 972 l 486 122 q 451 36 486 71 q 365 0 415 0 l 122 0 q 36 36 71 0 q 0 122 0 71 l 0 972 z "},"u":{"ha":608,"x_min":0,"x_max":486,"o":"m 0 729 l 122 729 l 122 122 l 365 122 l 365 729 l 486 729 l 486 122 q 451 36 486 71 q 365 0 415 0 l 122 0 q 36 36 71 0 q 0 122 0 71 l 0 729 z "},"V":{"ha":608,"x_min":0,"x_max":486,"o":"m 0 972 l 122 972 l 122 122 l 243 122 q 329 157 293 122 q 365 243 365 193 l 365 972 l 486 972 l 486 243 q 415 71 486 142 q 243 0 344 0 l 0 0 l 0 972 z "},"v":{"ha":608,"x_min":0,"x_max":486,"o":"m 0 729 l 122 729 l 122 122 l 243 122 q 329 157 293 122 q 365 243 365 193 l 365 729 l 486 729 l 486 243 q 415 71 486 142 q 243 0 344 0 l 0 0 l 0 729 z "},"W":{"ha":729,"x_min":0,"x_max":608,"o":"m 0 972 l 122 972 l 122 122 l 243 122 l 243 972 l 365 972 l 365 122 q 451 157 415 122 q 486 243 486 193 l 486 972 l 608 972 l 608 243 q 537 71 608 142 q 365 0 465 0 l 0 0 l 0 972 z "},"w":{"ha":729,"x_min":0,"x_max":608,"o":"m 0 729 l 122 729 l 122 122 l 243 122 l 243 729 l 365 729 l 365 122 q 451 157 415 122 q 486 243 486 193 l 486 729 l 608 729 l 608 243 q 537 71 608 142 q 365 0 465 0 l 0 0 l 0 729 z "},"X":{"ha":608,"x_min":0,"x_max":486,"o":"m 122 0 l 0 0 l 0 365 q 36 451 0 415 q 115 486 69 484 q 36 522 69 489 q 0 608 0 557 l 0 972 l 122 972 l 122 547 l 365 547 l 365 972 l 486 972 l 486 608 q 451 522 486 557 q 372 486 417 489 q 451 451 417 484 q 486 365 486 415 l 486 0 l 365 0 l 365 426 l 122 426 l 122 0 z "},"x":{"ha":608,"x_min":0,"x_max":486,"o":"m 122 0 l 0 0 l 0 243 q 36 329 0 293 q 115 365 69 362 q 36 400 69 367 q 0 486 0 436 l 0 729 l 122 729 l 122 426 l 365 426 l 365 729 l 486 729 l 486 486 q 451 400 486 436 q 372 365 417 367 q 451 329 417 362 q 486 243 486 293 l 486 0 l 365 0 l 365 304 l 122 304 l 122 0 z "},"Y":{"ha":608,"x_min":0,"x_max":486,"o":"m 0 972 l 122 972 l 122 486 l 365 486 l 365 972 l 486 972 l 486 486 q 451 400 486 436 q 365 365 415 365 l 304 365 l 304 0 l 182 0 l 182 365 l 122 365 q 36 400 71 365 q 0 486 0 436 l 0 972 z "},"y":{"ha":608,"x_min":0,"x_max":486,"o":"m 365 729 l 486 729 l 486 122 q 451 36 486 71 q 365 0 415 0 l 61 0 l 61 122 l 365 122 l 365 243 l 122 243 q 36 279 71 243 q 0 365 0 314 l 0 729 l 122 729 l 122 365 l 365 365 l 365 729 z "},"Z":{"ha":608,"x_min":0,"x_max":486,"o":"m 0 851 l 0 972 l 486 972 l 486 547 q 451 461 486 497 q 365 426 415 426 l 122 426 l 122 122 l 486 122 l 486 0 l 0 0 l 0 426 q 36 512 0 476 q 122 547 71 547 l 365 547 l 365 851 l 0 851 z "},"z":{"ha":608,"x_min":0,"x_max":486,"o":"m 0 608 l 0 729 l 486 729 l 486 426 q 451 340 486 375 q 365 304 415 304 l 122 304 l 122 122 l 486 122 l 486 0 l 0 0 l 0 304 q 36 390 0 354 q 122 426 71 426 l 365 426 l 365 608 l 0 608 z "},".":{"ha":243,"x_min":0,"x_max":122,"o":"m 122 0 l 0 0 l 0 122 l 122 122 l 122 0 z "},":":{"ha":243,"x_min":0,"x_max":122,"o":"m 122 0 l 0 0 l 0 122 l 122 122 l 122 0 m 122 426 l 0 426 l 0 547 l 122 547 l 122 426 z "},",":{"ha":243,"x_min":0,"x_max":122,"o":"m 0 122 l 122 122 l 122 0 q 86 -86 122 -50 q 0 -122 50 -122 l 0 122 z "},";":{"ha":243,"x_min":0,"x_max":122,"o":"m 122 426 l 0 426 l 0 547 l 122 547 l 122 426 m 0 122 l 122 122 l 122 0 q 86 -86 122 -50 q 0 -122 50 -122 l 0 122 z "},"'":{"ha":243,"x_min":0,"x_max":122,"o":"m 0 972 l 122 972 l 122 851 q 86 765 122 801 q 0 729 50 729 l 0 972 z "},"\"":{"ha":486,"x_min":0,"x_max":365,"o":"m 122 851 q 86 765 122 801 q 0 729 50 729 l 0 972 l 122 972 l 122 851 m 365 851 q 329 765 365 801 q 243 729 293 729 l 243 972 l 365 972 l 365 851 z "},"(":{"ha":365,"x_min":0,"x_max":243,"o":"m 122 1094 l 243 1094 l 243 972 l 122 972 l 122 0 l 243 0 l 243 -122 l 122 -122 q 36 -86 71 -122 q 0 0 0 -50 l 0 972 q 36 1058 0 1023 q 122 1094 71 1094 z "},"!":{"ha":243,"x_min":0,"x_max":122,"o":"m 122 0 l 0 0 l 0 122 l 122 122 l 122 0 m 122 243 l 0 243 l 0 972 l 122 972 l 122 243 z "},"?":{"ha":608,"x_min":0,"x_max":486,"o":"m 122 0 l 122 122 l 243 122 l 243 0 l 122 0 m 243 243 l 122 243 l 122 426 q 157 512 122 476 q 243 547 193 547 l 365 547 l 365 851 l 122 851 l 122 669 l 0 669 l 0 851 q 36 937 0 901 q 122 972 71 972 l 365 972 q 451 937 415 972 q 486 851 486 901 l 486 547 q 451 461 486 497 q 365 426 415 426 l 243 426 l 243 243 z "},")":{"ha":365,"x_min":0,"x_max":243,"o":"m 122 972 l 0 972 l 0 1094 l 122 1094 q 208 1058 172 1094 q 243 972 243 1023 l 243 0 q 208 -86 243 -50 q 122 -122 172 -122 l 0 -122 l 0 0 l 122 0 l 122 972 z "},"+":{"ha":486,"x_min":0,"x_max":365,"o":"m 122 426 l 0 426 l 0 547 l 122 547 l 122 669 l 243 669 l 243 547 l 365 547 l 365 426 l 243 426 l 243 304 l 122 304 l 122 426 z "},"-":{"ha":486,"x_min":0,"x_max":365,"o":"m 0 426 l 0 547 l 365 547 l 365 426 l 0 426 z "},"*":{"ha":486,"x_min":0,"x_max":365,"o":"m 109 820 l 32 898 l 75 940 l 152 863 l 152 972 l 213 972 l 213 863 l 290 940 l 333 898 l 256 820 l 365 820 l 365 760 l 256 760 l 333 683 l 290 640 l 213 717 l 213 608 l 152 608 l 152 717 l 75 640 l 32 683 l 109 760 l 0 760 l 0 820 l 109 820 z "},"/":{"ha":486,"x_min":0,"x_max":365,"o":"m 122 -122 l 0 -122 l 243 1094 l 365 1094 l 122 -122 z "},"=":{"ha":486,"x_min":0,"x_max":365,"o":"m 0 547 l 0 669 l 365 669 l 365 547 l 0 547 m 0 304 l 0 425 l 365 425 l 365 304 l 0 304 z "},"$":{"ha":608,"x_min":0,"x_max":486,"o":"m 122 547 l 182 547 l 182 851 l 122 851 l 122 547 m 304 122 l 365 122 l 365 426 l 304 426 l 304 122 m 0 122 l 0 243 l 122 243 l 122 122 l 182 122 l 182 426 l 122 426 q 36 461 71 426 q 0 547 0 497 l 0 851 q 36 937 0 901 q 122 972 71 972 l 182 972 l 182 1094 l 304 1094 l 304 972 l 365 972 q 451 937 415 972 q 486 851 486 901 l 486 729 l 365 729 l 365 851 l 304 851 l 304 547 l 365 547 q 451 512 415 547 q 486 426 486 476 l 486 122 q 451 36 486 71 q 365 0 415 0 l 304 0 l 304 -122 l 182 -122 l 182 0 l 122 0 q 36 36 71 0 q 0 122 0 71 z "},"¢":{"ha":608,"x_min":0,"x_max":486,"o":"m 122 122 l 182 122 l 182 608 l 122 608 l 122 122 m 0 122 l 0 608 q 36 694 0 658 q 122 729 71 729 l 182 729 l 182 851 l 304 851 l 304 729 l 365 729 q 451 694 415 729 q 486 608 486 658 l 486 486 l 365 486 l 365 608 l 304 608 l 304 122 l 365 122 l 365 243 l 486 243 l 486 122 q 451 36 486 71 q 365 0 415 0 l 304 0 l 304 -122 l 182 -122 l 182 0 l 122 0 q 36 36 71 0 q 0 122 0 71 z "},"€":{"ha":608,"x_min":0,"x_max":486,"o":"m 486 851 l 486 729 l 365 729 l 365 851 l 182 851 l 182 669 l 365 669 l 365 547 l 182 547 l 182 425 l 365 425 l 365 304 l 182 304 l 182 122 l 365 122 l 365 243 l 486 243 l 486 122 q 451 36 486 71 q 365 0 415 0 l 182 0 q 96 36 132 0 q 61 122 61 71 l 61 304 l 0 304 l 0 425 l 61 425 l 61 547 l 0 547 l 0 669 l 61 669 l 61 851 q 96 937 61 901 q 182 972 132 972 l 365 972 q 451 937 415 972 q 486 851 486 901 z "},"£":{"ha":608,"x_min":0,"x_max":486,"o":"m 0 0 l 0 122 l 122 122 l 122 365 l 0 365 l 0 486 l 122 486 l 122 851 q 157 937 122 901 q 243 972 193 972 l 365 972 q 451 937 415 972 q 486 851 486 901 l 486 669 l 365 669 l 365 851 l 243 851 l 243 486 l 426 486 l 426 365 l 243 365 l 243 122 l 486 122 l 486 0 l 0 0 z "},"¥":{"ha":608,"x_min":0,"x_max":486,"o":"m 0 972 l 122 972 l 122 486 l 365 486 l 365 972 l 486 972 l 486 486 q 451 400 486 436 q 365 365 415 365 l 304 365 l 304 304 l 486 304 l 486 182 l 304 182 l 304 0 l 182 0 l 182 182 l 0 182 l 0 304 l 182 304 l 182 365 l 122 365 q 36 400 71 365 q 0 486 0 436 l 0 972 z "},"¤":{"ha":851,"x_min":0,"x_max":729,"o":"m 243 608 l 243 365 l 486 365 l 486 608 l 243 608 m 122 608 q 157 694 122 658 q 243 729 193 729 l 304 729 l 304 851 l 426 851 l 426 729 l 486 729 q 572 694 537 729 q 608 608 608 658 l 608 547 l 729 547 l 729 426 l 608 426 l 608 365 q 572 279 608 314 q 486 243 537 243 l 425 243 l 425 122 l 304 122 l 304 243 l 243 243 q 157 279 193 243 q 122 365 122 314 l 122 426 l 0 426 l 0 547 l 122 547 l 122 608 z "},"÷":{"ha":486,"x_min":0,"x_max":365,"o":"m 0 426 l 0 547 l 365 547 l 365 426 l 0 426 m 243 608 l 122 608 l 122 729 l 243 729 l 243 608 m 243 243 l 122 243 l 122 365 l 243 365 l 243 243 z "},"%":{"ha":608,"x_min":0,"x_max":486,"o":"m 243 122 l 243 243 q 267 329 243 293 q 324 365 291 365 l 405 365 q 463 329 439 365 q 486 243 486 293 l 486 122 q 463 36 486 71 q 405 0 439 0 l 324 0 q 267 36 291 0 q 243 122 243 71 m 486 972 l 365 486 l 243 486 l 365 972 l 486 972 m 0 0 l 122 486 l 243 486 l 122 0 l 0 0 m 81 851 l 81 729 l 162 729 l 162 851 l 81 851 m 0 729 l 0 851 q 24 937 0 901 q 81 972 47 972 l 162 972 q 219 937 196 972 q 243 851 243 901 l 243 729 q 219 643 243 679 q 162 608 196 608 l 81 608 q 24 643 47 608 q 0 729 0 679 m 324 243 l 324 122 l 405 122 l 405 243 l 324 243 z "},"‰":{"ha":729,"x_min":0,"x_max":608,"o":"m 0 729 l 0 851 q 24 937 0 901 q 81 972 47 972 l 162 972 q 219 937 196 972 q 243 851 243 901 l 243 729 q 219 643 243 679 q 162 608 196 608 l 81 608 q 24 643 47 608 q 0 729 0 679 m 243 122 l 243 243 q 267 329 243 293 q 324 365 291 365 l 527 365 q 584 329 560 365 q 608 243 608 293 l 608 122 q 584 36 608 71 q 527 0 560 0 l 324 0 q 267 36 291 0 q 243 122 243 71 m 324 243 l 324 122 l 385 122 l 385 243 l 324 243 m 466 243 l 466 122 l 527 122 l 527 243 l 466 243 m 486 972 l 365 486 l 243 486 l 365 972 l 486 972 m 0 0 l 122 486 l 243 486 l 122 0 l 0 0 m 81 851 l 81 729 l 162 729 l 162 851 l 81 851 z "},"#":{"ha":729,"x_min":0,"x_max":608,"o":"m 243 365 l 365 365 l 365 608 l 243 608 l 243 365 m 122 243 l 0 243 l 0 365 l 122 365 l 122 608 l 0 608 l 0 729 l 122 729 l 122 972 l 243 972 l 243 729 l 365 729 l 365 972 l 486 972 l 486 729 l 608 729 l 608 608 l 486 608 l 486 365 l 608 365 l 608 243 l 486 243 l 486 0 l 365 0 l 365 243 l 243 243 l 243 0 l 122 0 l 122 243 z "},"@":{"ha":729,"x_min":0,"x_max":608,"o":"m 365 243 l 486 243 l 486 608 l 365 608 l 365 243 m 486 0 l 486 -122 l 122 -122 q 36 -86 71 -122 q 0 0 0 -50 l 0 851 q 36 937 0 901 q 122 972 71 972 l 486 972 q 572 937 537 972 q 608 851 608 901 l 608 243 q 572 157 608 193 q 486 122 537 122 l 365 122 q 279 157 314 122 q 243 243 243 193 l 243 608 q 279 694 243 658 q 365 729 314 729 l 486 729 l 486 851 l 122 851 l 122 0 l 486 0 z "},"&":{"ha":608,"x_min":0,"x_max":486,"o":"m 486 0 l 122 0 q 36 36 71 0 q 0 122 0 71 l 0 365 q 36 451 0 415 q 53 486 53 468 q 27 531 53 504 q 0 608 0 557 l 0 851 q 36 937 0 901 q 122 972 71 972 l 243 972 q 329 937 293 972 q 365 851 365 901 l 365 729 l 243 729 l 243 851 l 122 851 l 122 547 l 365 547 l 365 608 l 486 608 l 486 0 m 365 122 l 365 426 l 122 426 l 122 122 l 365 122 z "},"_":{"ha":486,"x_min":0,"x_max":365,"o":"m 0 -122 l 0 0 l 365 0 l 365 -122 l 0 -122 z "},"¿":{"ha":608,"x_min":0,"x_max":486,"o":"m 365 729 l 365 608 l 243 608 l 243 729 l 365 729 m 243 486 l 365 486 l 365 304 q 329 218 365 254 q 243 182 293 182 l 243 182 l 122 182 l 122 -61 l 365 -61 l 365 61 l 486 61 l 486 -61 q 451 -147 486 -111 q 365 -182 415 -182 l 122 -182 q 36 -147 71 -182 q 0 -61 0 -111 l 0 182 q 36 268 0 233 q 122 304 71 304 l 122 304 l 243 304 l 243 486 z "},"¡":{"ha":243,"x_min":0,"x_max":122,"o":"m 0 729 l 122 729 l 122 608 l 0 608 l 0 729 m 0 486 l 122 486 l 122 -182 l 0 -182 l 0 486 z "},"\\":{"ha":486,"x_min":0,"x_max":365,"o":"m 243 -122 l 0 1094 l 122 1094 l 365 -122 l 243 -122 z "},"|":{"ha":486,"x_min":122,"x_max":243,"o":"m 243 -122 l 122 -122 l 122 1094 l 243 1094 l 243 -122 z "},"{":{"ha":486,"x_min":0,"x_max":365,"o":"m 243 -122 q 157 -86 193 -122 q 122 0 122 -50 l 122 426 l 0 426 l 0 547 l 122 547 l 122 972 q 157 1058 122 1023 q 243 1094 193 1094 l 365 1094 l 365 972 l 243 972 l 243 608 q 208 522 243 557 q 129 486 174 489 q 208 451 174 484 q 243 365 243 415 l 243 0 l 365 0 l 365 -122 l 243 -122 z "},"}":{"ha":486,"x_min":0,"x_max":365,"o":"m 122 -122 l 0 -122 l 0 0 l 122 0 l 122 365 q 157 451 122 415 q 236 486 190 484 q 157 522 190 489 q 122 608 122 557 l 122 972 l 0 972 l 0 1094 l 122 1094 q 208 1058 172 1094 q 243 972 243 1023 l 243 547 l 365 547 l 365 426 l 243 426 l 243 0 q 208 -86 243 -50 q 122 -122 172 -122 z "},"<":{"ha":486,"x_min":0,"x_max":365,"o":"m 243 729 l 365 729 l 365 608 l 243 608 q 157 572 193 608 q 122 486 122 537 q 157 400 122 436 q 243 365 193 365 l 365 365 l 365 243 l 243 243 q 71 314 142 243 q 0 486 0 386 q 71 658 0 587 q 243 729 142 729 z "},">":{"ha":486,"x_min":0,"x_max":365,"o":"m 122 608 l 0 608 l 0 729 l 122 729 q 293 658 222 729 q 365 486 365 587 q 293 314 365 386 q 122 243 222 243 l 0 243 l 0 365 l 122 365 q 208 400 172 365 q 243 486 243 436 q 208 572 243 537 q 122 608 172 608 z "},"[":{"ha":365,"x_min":0,"x_max":243,"o":"m 122 0 l 243 0 l 243 -122 l 0 -122 l 0 1094 l 243 1094 l 243 972 l 122 972 l 122 0 z "},"]":{"ha":365,"x_min":0,"x_max":243,"o":"m 0 -122 l 0 0 l 122 0 l 122 972 l 0 972 l 0 1094 l 243 1094 l 243 -122 l 0 -122 z "},"§":{"ha":608,"x_min":0,"x_max":486,"o":"m 365 365 l 365 608 l 122 608 l 122 365 l 365 365 m 486 972 l 486 851 l 365 851 l 365 972 l 122 972 l 122 729 l 365 729 q 451 694 415 729 q 486 608 486 658 l 486 365 q 451 322 486 340 q 365 304 415 304 l 365 304 q 451 286 415 304 q 486 243 486 268 l 486 0 q 451 -86 486 -50 q 365 -122 415 -122 l 122 -122 q 36 -86 71 -122 q 0 0 0 -50 l 0 122 l 122 122 l 122 0 l 365 0 l 365 243 l 122 243 q 36 279 71 243 q 0 365 0 314 l 0 608 q 36 651 0 633 q 115 669 69 667 q 36 686 69 670 q 0 729 0 704 l 0 972 q 36 1058 0 1023 q 122 1094 71 1094 l 365 1094 q 451 1058 415 1094 q 486 972 486 1023 z "},"¶":{"ha":608,"x_min":0,"x_max":486,"o":"m 0 486 l 0 851 q 36 937 0 901 q 122 972 71 972 l 486 972 l 486 -122 l 365 -122 l 365 851 l 304 851 l 304 -122 l 182 -122 l 182 365 l 122 365 q 36 400 71 365 q 0 486 0 436 z "},"µ":{"ha":608,"x_min":0,"x_max":486,"o":"m 0 729 l 122 729 l 122 122 l 365 122 l 365 729 l 486 729 l 486 122 q 451 36 486 71 q 365 0 415 0 l 122 0 l 122 -182 l 0 -182 l 0 729 z "},"`":{"ha":486,"x_min":0,"x_max":304,"o":"m 202 1033 l 0 1155 l 202 1155 l 304 1033 l 202 1033 z "},"^":{"ha":608,"x_min":0,"x_max":486,"o":"m 486 729 l 486 608 l 365 608 l 365 729 q 329 815 365 780 q 243 851 293 851 q 157 815 193 851 q 122 729 122 780 l 122 608 l 0 608 l 0 729 q 71 901 0 830 q 243 972 142 972 q 415 901 344 972 q 486 729 486 830 z "},"~":{"ha":608,"x_min":0,"x_max":486,"o":"m 122 486 l 122 365 l 0 365 l 0 486 q 36 572 0 537 q 122 608 71 608 l 182 608 q 268 572 233 608 q 304 486 304 537 l 365 486 l 365 608 l 486 608 l 486 486 q 451 400 486 436 q 365 365 415 365 l 304 365 q 218 400 254 365 q 182 486 182 436 l 122 486 z "},"©":{"ha":729,"x_min":0,"x_max":608,"o":"m 426 608 l 426 547 l 365 547 l 365 608 l 243 608 l 243 365 l 365 365 l 365 426 l 426 426 l 426 365 q 408 322 426 340 q 365 304 390 304 l 243 304 q 200 322 218 304 q 182 365 182 340 l 182 608 q 200 651 182 633 q 243 669 218 669 l 365 669 q 408 651 390 669 q 426 608 426 633 m 0 243 l 0 729 q 36 815 0 780 q 122 851 71 851 l 486 851 q 572 815 537 851 q 608 729 608 780 l 608 243 q 572 157 608 193 q 486 122 537 122 l 122 122 q 36 157 71 122 q 0 243 0 193 m 61 243 l 61 243 q 78 200 61 218 q 122 182 96 182 l 486 182 q 529 200 512 182 q 547 243 547 218 l 547 729 l 547 729 q 529 772 547 755 q 486 790 511 790 l 122 790 q 79 772 96 790 q 61 729 61 755 l 61 243 z "},"®":{"ha":729,"x_min":0,"x_max":608,"o":"m 243 486 l 365 486 l 365 608 l 243 608 l 243 486 m 61 243 l 61 243 q 78 200 61 218 q 122 182 96 182 l 486 182 q 529 200 512 182 q 547 243 547 218 l 547 729 l 547 729 q 529 772 547 755 q 486 790 511 790 l 122 790 q 79 772 96 790 q 61 729 61 755 l 61 243 m 243 304 l 182 304 l 182 669 l 365 669 q 408 651 390 669 q 426 608 426 633 l 426 517 q 408 474 426 492 q 368 456 391 457 q 408 438 391 455 q 426 395 426 420 l 426 304 l 365 304 l 365 426 l 243 426 l 243 304 m 0 243 l 0 729 q 36 815 0 780 q 122 851 71 851 l 486 851 q 572 815 537 851 q 608 729 608 780 l 608 243 q 572 157 608 193 q 486 122 537 122 l 122 122 q 36 157 71 122 q 0 243 0 193 z "},"™":{"ha":729,"x_min":0,"x_max":608,"o":"m 152 912 l 152 486 l 91 486 l 91 912 l 0 912 l 0 972 l 243 972 l 243 912 l 152 912 m 365 486 l 304 486 l 304 972 l 547 972 q 590 955 572 972 q 608 912 608 937 l 608 486 l 547 486 l 547 912 l 486 912 l 486 486 l 426 486 l 426 912 l 365 912 l 365 486 z "},"☡":{"ha":608,"x_min":0,"x_max":486,"o":"m 122 0 l 0 0 l 0 851 q 36 937 0 901 q 122 972 71 972 l 365 972 l 365 122 l 486 122 l 486 0 l 243 0 l 243 851 l 122 851 l 122 0 z "},"¦":{"ha":486,"x_min":122,"x_max":243,"o":"m 122 365 l 243 365 l 243 -122 l 122 -122 l 122 365 m 243 608 l 122 608 l 122 1094 l 243 1094 l 243 608 z "},"‾":{"ha":486,"x_min":0,"x_max":365,"o":"m 0 972 l 0 1094 l 365 1094 l 365 972 l 0 972 z "},"…":{"ha":729,"x_min":0,"x_max":608,"o":"m 122 0 l 0 0 l 0 122 l 122 122 l 122 0 m 365 0 l 243 0 l 243 122 l 365 122 l 365 0 m 608 0 l 486 0 l 486 122 l 608 122 l 608 0 z "},"­":{"ha":486,"x_min":0,"x_max":365,"o":"m 0 426 l 0 547 l 365 547 l 365 426 l 0 426 z "},"−":{"ha":486,"x_min":0,"x_max":365,"o":"m 0 426 l 0 547 l 365 547 l 365 426 l 0 426 z "},"‐":{"ha":486,"x_min":0,"x_max":365,"o":"m 0 426 l 0 547 l 365 547 l 365 426 l 0 426 z "},"‑":{"ha":486,"x_min":0,"x_max":486,"o":"m 0 426 l 0 547 l 486 547 l 486 426 l 0 426 z "},"‒":{"ha":608,"x_min":0,"x_max":486,"o":"m 0 426 l 0 547 l 486 547 l 486 426 l 0 426 z "},"–":{"ha":608,"x_min":0,"x_max":486,"o":"m 0 426 l 0 547 l 486 547 l 486 426 l 0 426 z "},"—":{"ha":729,"x_min":0,"x_max":608,"o":"m 0 426 l 0 547 l 608 547 l 608 426 l 0 426 z "},"―":{"ha":851,"x_min":0,"x_max":729,"o":"m 0 426 l 0 547 l 729 547 l 729 426 l 0 426 z "},"ʹ":{"ha":243,"x_min":0,"x_max":122,"o":"m 0 972 l 122 972 l 122 851 q 86 765 122 801 q 0 729 50 729 l 0 972 z "},"ʺ":{"ha":486,"x_min":0,"x_max":365,"o":"m 122 851 q 86 765 122 801 q 0 729 50 729 l 0 972 l 122 972 l 122 851 m 365 851 q 329 765 365 801 q 243 729 293 729 l 243 972 l 365 972 l 365 851 z "},"ʻ":{"ha":243,"x_min":0,"x_max":122,"o":"m 122 729 l 0 729 l 0 851 q 36 937 0 901 q 122 972 71 972 l 122 729 z "},"ʼ":{"ha":243,"x_min":0,"x_max":122,"o":"m 0 972 l 122 972 l 122 851 q 86 765 122 801 q 0 729 50 729 l 0 972 z "},"ʽ":{"ha":243,"x_min":0,"x_max":122,"o":"m 122 972 l 122 729 q 36 765 71 729 q 0 851 0 801 l 0 972 l 122 972 z "},"‘":{"ha":243,"x_min":0,"x_max":122,"o":"m 122 729 l 0 729 l 0 851 q 36 937 0 901 q 122 972 71 972 l 122 729 z "},"’":{"ha":243,"x_min":0,"x_max":122,"o":"m 0 972 l 122 972 l 122 851 q 86 765 122 801 q 0 729 50 729 l 0 972 z "},"‚":{"ha":243,"x_min":0,"x_max":122,"o":"m 0 122 l 122 122 l 122 0 q 86 -86 122 -50 q 0 -122 50 -122 l 0 122 z "},"‛":{"ha":243,"x_min":0,"x_max":122,"o":"m 122 972 l 122 729 q 36 765 71 729 q 0 851 0 801 l 0 972 l 122 972 z "},"“":{"ha":486,"x_min":0,"x_max":365,"o":"m 0 851 q 36 937 0 901 q 122 972 71 972 l 122 729 l 0 729 l 0 851 m 243 851 q 279 937 243 901 q 365 972 314 972 l 365 729 l 243 729 l 243 851 z "},"”":{"ha":486,"x_min":0,"x_max":365,"o":"m 122 851 q 86 765 122 801 q 0 729 50 729 l 0 972 l 122 972 l 122 851 m 365 851 q 329 765 365 801 q 243 729 293 729 l 243 972 l 365 972 l 365 851 z "},"„":{"ha":486,"x_min":0,"x_max":365,"o":"m 122 0 q 86 -86 122 -50 q 0 -122 50 -122 l 0 122 l 122 122 l 122 0 m 365 0 q 329 -86 365 -50 q 243 -122 293 -122 l 243 122 l 365 122 l 365 0 z "},"‟":{"ha":486,"x_min":0,"x_max":365,"o":"m 0 851 l 0 972 l 122 972 l 122 729 q 36 765 71 729 q 0 851 0 801 m 243 851 l 243 972 l 365 972 l 365 729 q 279 765 314 729 q 243 851 243 801 z "},"′":{"ha":243,"x_min":0,"x_max":122,"o":"m 0 972 l 122 972 l 122 851 q 86 765 122 801 q 0 729 50 729 l 0 972 z "},"″":{"ha":486,"x_min":0,"x_max":365,"o":"m 122 851 q 86 765 122 801 q 0 729 50 729 l 0 972 l 122 972 l 122 851 m 365 851 q 329 765 365 801 q 243 729 293 729 l 243 972 l 365 972 l 365 851 z "},"℗":{"ha":729,"x_min":0,"x_max":608,"o":"m 243 486 l 365 486 l 365 608 l 243 608 l 243 486 m 61 243 l 61 243 q 78 200 61 218 q 122 182 96 182 l 486 182 q 529 200 512 182 q 547 243 547 218 l 547 729 l 547 729 q 529 772 547 755 q 486 790 511 790 l 122 790 q 79 772 96 790 q 61 729 61 755 l 61 243 m 243 304 l 182 304 l 182 669 l 365 669 q 408 651 390 669 q 426 608 426 633 l 426 486 q 408 443 426 461 q 365 426 390 426 l 243 426 l 243 304 m 0 243 l 0 729 q 36 815 0 780 q 122 851 71 851 l 486 851 q 572 815 537 851 q 608 729 608 780 l 608 243 q 572 157 608 193 q 486 122 537 122 l 122 122 q 36 157 71 122 q 0 243 0 193 z "},"℮":{"ha":608,"x_min":0,"x_max":486,"o":"m 182 608 l 182 365 l 304 365 l 304 608 l 182 608 m 426 122 l 426 0 l 122 0 q 36 36 71 0 q 0 122 0 71 l 0 608 q 36 694 0 658 q 122 729 71 729 l 365 729 q 451 694 415 729 q 486 608 486 658 l 486 243 l 182 243 l 182 122 l 426 122 z "},"·":{"ha":243,"x_min":0,"x_max":122,"o":"m 122 426 l 0 426 l 0 547 l 122 547 l 122 426 z "},"∙":{"ha":243,"x_min":0,"x_max":122,"o":"m 122 426 l 0 426 l 0 547 l 122 547 l 122 426 z "},"•":{"ha":365,"x_min":0,"x_max":243,"o":"m 0 486 q 36 572 0 537 q 122 608 71 608 q 208 572 172 608 q 243 486 243 537 q 208 400 243 436 q 122 365 172 365 q 36 400 71 365 q 0 486 0 436 z "},"≤":{"ha":486,"x_min":0,"x_max":365,"o":"m 0 0 l 0 122 l 365 122 l 365 0 l 0 0 m 243 729 l 365 729 l 365 608 l 243 608 q 157 572 193 608 q 122 486 122 537 q 157 400 122 436 q 243 365 193 365 l 365 365 l 365 243 l 243 243 q 71 314 142 243 q 0 486 0 386 q 71 658 0 587 q 243 729 142 729 z "},"≥":{"ha":486,"x_min":0,"x_max":365,"o":"m 0 0 l 0 122 l 365 122 l 365 0 l 0 0 m 122 608 l 0 608 l 0 729 l 122 729 q 293 658 222 729 q 365 486 365 587 q 293 314 365 386 q 122 243 222 243 l 0 243 l 0 365 l 122 365 q 208 400 172 365 q 243 486 243 436 q 208 572 243 537 q 122 608 172 608 z "},"±":{"ha":486,"x_min":0,"x_max":365,"o":"m 122 426 l 0 426 l 0 547 l 122 547 l 122 669 l 243 669 l 243 547 l 365 547 l 365 426 l 243 426 l 243 304 l 122 304 l 122 426 m 0 0 l 0 122 l 365 122 l 365 0 l 0 0 z "},"×":{"ha":486,"x_min":11,"x_max":354,"o":"m 182 400 l 96 315 l 11 400 l 96 486 l 11 572 l 96 658 l 182 572 l 268 658 l 354 572 l 268 486 l 354 400 l 268 315 l 182 400 z "},"°":{"ha":486,"x_min":0,"x_max":365,"o":"m 0 729 l 0 851 q 36 937 0 901 q 122 972 71 972 l 243 972 q 329 937 293 972 q 365 851 365 901 l 365 729 q 329 643 365 679 q 243 608 293 608 l 122 608 q 36 643 71 608 q 0 729 0 679 m 122 851 l 122 729 l 243 729 l 243 851 l 122 851 z "},"¬":{"ha":486,"x_min":0,"x_max":365,"o":"m 243 426 l 0 426 l 0 547 l 365 547 l 365 304 l 243 304 l 243 426 z "},"⌐":{"ha":486,"x_min":0,"x_max":365,"o":"m 0 547 l 365 547 l 365 426 l 122 426 l 122 304 l 0 304 l 0 547 z "},"≡":{"ha":486,"x_min":0,"x_max":365,"o":"m 0 426 l 0 547 l 365 547 l 365 426 l 0 426 m 0 669 l 0 790 l 365 790 l 365 669 l 0 669 m 0 182 l 0 304 l 365 304 l 365 182 l 0 182 z "},"†":{"ha":608,"x_min":0,"x_max":486,"o":"m 304 608 l 304 -122 l 182 -122 l 182 608 l 0 608 l 0 729 l 182 729 l 182 972 l 304 972 l 304 729 l 486 729 l 486 608 l 304 608 z "},"‡":{"ha":608,"x_min":0,"x_max":486,"o":"m 304 122 l 304 -122 l 182 -122 l 182 122 l 0 122 l 0 243 l 182 243 l 182 608 l 0 608 l 0 729 l 182 729 l 182 972 l 304 972 l 304 729 l 486 729 l 486 608 l 304 608 l 304 243 l 486 243 l 486 122 l 304 122 z "},"‖":{"ha":486,"x_min":0,"x_max":365,"o":"m 122 0 l 0 0 l 0 972 l 122 972 l 122 0 m 365 0 l 243 0 l 243 972 l 365 972 l 365 0 z "},"‼":{"ha":486,"x_min":0,"x_max":365,"o":"m 122 0 l 0 0 l 0 122 l 122 122 l 122 0 m 365 243 l 243 243 l 243 972 l 365 972 l 365 243 m 365 0 l 243 0 l 243 122 l 365 122 l 365 0 m 122 243 l 0 243 l 0 972 l 122 972 l 122 243 z "},"⁞":{"ha":243,"x_min":0,"x_max":122,"o":"m 122 61 l 0 61 l 0 182 l 122 182 l 122 61 m 122 304 l 0 304 l 0 426 l 122 426 l 122 304 m 122 547 l 0 547 l 0 669 l 122 669 l 122 547 m 122 790 l 0 790 l 0 912 l 122 912 l 122 790 z "},"₵":{"ha":608,"x_min":0,"x_max":486,"o":"m 122 122 l 182 122 l 182 851 l 122 851 l 122 122 m 0 122 l 0 851 q 36 937 0 901 q 122 972 71 972 l 182 972 l 182 1094 l 304 1094 l 304 972 l 365 972 q 451 937 415 972 q 486 851 486 901 l 486 669 l 365 669 l 365 851 l 304 851 l 304 122 l 365 122 l 365 304 l 486 304 l 486 122 q 451 36 486 71 q 365 0 415 0 l 304 0 l 304 -122 l 182 -122 l 182 0 l 122 0 q 36 36 71 0 q 0 122 0 71 z "},"₸":{"ha":608,"x_min":0,"x_max":486,"o":"m 0 851 l 0 972 l 486 972 l 486 851 l 0 851 m 182 608 l 0 608 l 0 729 l 486 729 l 486 608 l 304 608 l 304 0 l 182 0 l 182 608 z "},"⃀":{"ha":608,"x_min":0,"x_max":486,"o":"m 486 851 l 486 729 l 365 729 l 365 851 l 122 851 l 122 365 l 365 365 l 365 486 l 486 486 l 486 365 q 451 279 486 314 q 365 243 415 243 l 122 243 q 36 279 71 243 q 0 365 0 314 l 0 851 q 36 937 0 901 q 122 972 71 972 l 365 972 q 451 937 415 972 q 486 851 486 901 m 486 0 l 0 0 l 0 122 l 486 122 l 486 0 z "},"₿":{"ha":608,"x_min":0,"x_max":486,"o":"m 61 0 l 0 0 l 0 122 l 61 122 l 61 851 l 0 851 l 0 972 l 61 972 l 61 1094 l 182 1094 l 182 972 l 243 972 l 243 1094 l 365 1094 l 365 972 q 451 937 415 972 q 486 851 486 901 l 486 608 q 451 522 486 557 q 372 486 417 489 q 451 451 417 484 q 486 365 486 415 l 486 122 q 451 36 486 71 q 365 0 415 0 l 365 -122 l 243 -122 l 243 0 l 182 0 l 182 -122 l 61 -122 l 61 0 m 365 851 l 182 851 l 182 547 l 365 547 l 365 851 m 182 122 l 365 122 l 365 426 l 182 426 l 182 122 z "},"₽":{"ha":608,"x_min":0,"x_max":486,"o":"m 182 365 l 182 304 l 426 304 l 426 182 l 182 182 l 182 0 l 61 0 l 61 182 l 0 182 l 0 304 l 61 304 l 61 365 l 0 365 l 0 486 l 61 486 l 61 972 l 365 972 q 451 937 415 972 q 486 851 486 901 l 486 486 q 451 400 486 436 q 365 365 415 365 l 182 365 m 182 486 l 365 486 l 365 851 l 182 851 l 182 486 z "},"円":{"ha":729,"x_min":0,"x_max":608,"o":"m 365 486 l 486 486 l 486 851 l 365 851 l 365 486 m 122 0 l 0 0 l 0 972 l 608 972 l 608 122 q 572 36 608 71 q 486 0 537 0 l 365 0 l 365 122 l 486 122 l 486 365 l 122 365 l 122 0 m 122 486 l 243 486 l 243 851 l 122 851 l 122 486 z "},"元":{"ha":729,"x_min":0,"x_max":608,"o":"m 122 851 l 122 972 l 486 972 l 486 851 l 122 851 m 122 608 l 0 608 l 0 729 l 608 729 l 608 608 l 486 608 l 486 122 l 608 122 l 608 0 l 486 0 q 400 36 436 0 q 365 122 365 71 l 365 608 l 243 608 l 243 243 q 172 71 243 142 q 0 0 101 0 l 0 122 q 86 157 50 122 q 122 243 122 193 l 122 608 z "},"ː":{"ha":243,"x_min":0,"x_max":122,"o":"m 0 61 l 61 182 l 122 61 l 122 0 l 0 0 l 0 61 m 122 486 l 61 365 l 0 486 l 0 547 l 122 547 l 122 486 z "},"ˑ":{"ha":243,"x_min":0,"x_max":122,"o":"m 122 486 l 61 365 l 0 486 l 0 547 l 122 547 l 122 486 z "},"ſ":{"ha":365,"x_min":0,"x_max":243,"o":"m 122 972 l 243 972 l 243 851 l 122 851 l 122 -122 l 0 -122 l 0 851 q 36 937 0 901 q 122 972 71 972 z "},"ẜ":{"ha":486,"x_min":0,"x_max":365,"o":"m 243 -122 l 122 -122 l 122 426 l 0 426 l 0 547 l 122 547 l 122 851 q 157 937 122 901 q 243 972 193 972 l 365 972 l 365 851 l 243 851 l 243 547 l 365 547 l 365 426 l 243 426 l 243 -122 z "},"ẞ":{"ha":608,"x_min":0,"x_max":486,"o":"m 122 0 l 0 0 l 0 851 q 36 937 0 901 q 122 972 71 972 l 365 972 q 451 937 415 972 q 486 851 486 901 l 486 608 q 451 522 486 557 q 372 486 417 489 q 451 451 417 484 q 486 365 486 415 l 486 122 q 451 36 486 71 q 365 0 415 0 l 243 0 l 243 122 l 365 122 l 365 426 l 243 426 l 243 547 l 365 547 l 365 851 l 122 851 l 122 0 z "},"ß":{"ha":608,"x_min":0,"x_max":486,"o":"m 122 -122 l 0 -122 l 0 851 q 36 937 0 901 q 122 972 71 972 l 365 972 q 451 937 415 972 q 486 851 486 901 l 486 608 q 451 522 486 557 q 372 486 417 489 q 451 451 417 484 q 486 365 486 415 l 486 122 q 451 36 486 71 q 365 0 415 0 l 243 0 l 243 122 l 365 122 l 365 426 l 243 426 l 243 547 l 365 547 l 365 851 l 122 851 l 122 -122 z "},"Æ":{"ha":729,"x_min":0,"x_max":608,"o":"m 122 365 l 243 365 l 243 851 l 122 851 l 122 365 m 122 0 l 0 0 l 0 851 q 36 937 0 901 q 122 972 71 972 l 608 972 l 608 851 l 365 851 l 365 547 l 547 547 l 547 426 l 365 426 l 365 122 l 608 122 l 608 0 l 243 0 l 243 243 l 122 243 l 122 0 z "},"æ":{"ha":729,"x_min":0,"x_max":608,"o":"m 0 122 l 0 365 q 36 451 0 415 q 122 486 71 486 l 243 486 l 243 608 l 0 608 q 36 694 0 658 q 122 729 71 729 l 243 729 q 304 713 277 729 q 365 729 331 729 l 486 729 q 572 694 537 729 q 608 608 608 658 l 608 243 l 365 243 l 365 122 l 547 122 l 547 0 l 122 0 q 36 36 71 0 q 0 122 0 71 m 122 122 l 243 122 l 243 365 l 122 365 l 122 122 m 365 365 l 486 365 l 486 608 l 365 608 l 365 365 z "},"Œ":{"ha":729,"x_min":0,"x_max":608,"o":"m 122 122 l 243 122 l 243 851 l 122 851 l 122 122 m 0 122 l 0 851 q 36 937 0 901 q 122 972 71 972 l 608 972 l 608 851 l 365 851 l 365 547 l 547 547 l 547 426 l 365 426 l 365 122 l 608 122 l 608 0 l 122 0 q 36 36 71 0 q 0 122 0 71 z "},"œ":{"ha":729,"x_min":0,"x_max":608,"o":"m 0 122 l 0 608 q 36 694 0 658 q 122 729 71 729 l 243 729 q 304 713 277 729 q 365 729 331 729 l 486 729 q 572 694 537 729 q 608 608 608 658 l 608 243 l 365 243 l 365 122 l 547 122 l 547 0 l 365 0 q 304 16 331 0 q 243 0 277 0 l 122 0 q 36 36 71 0 q 0 122 0 71 m 122 122 l 243 122 l 243 608 l 122 608 l 122 122 m 365 365 l 486 365 l 486 608 l 365 608 l 365 365 z "},"Þ":{"ha":608,"x_min":0,"x_max":486,"o":"m 122 243 l 365 243 l 365 729 l 122 729 l 122 243 m 122 122 l 122 0 l 0 0 l 0 972 l 122 972 l 122 851 l 365 851 q 451 815 415 851 q 486 729 486 780 l 486 243 q 451 157 486 193 q 365 122 415 122 l 122 122 z "},"þ":{"ha":608,"x_min":0,"x_max":486,"o":"m 122 122 l 365 122 l 365 608 l 122 608 l 122 122 m 122 -182 l 0 -182 l 0 972 l 122 972 l 122 729 l 365 729 q 451 694 415 729 q 486 608 486 658 l 486 122 q 451 36 486 71 q 365 0 415 0 l 122 0 l 122 -182 z "},"Ø":{"ha":608,"x_min":0,"x_max":486,"o":"m 486 122 q 451 36 486 71 q 365 0 415 0 l 122 0 q 36 36 71 0 q 0 122 0 71 l 0 851 q 36 937 0 901 q 122 972 71 972 l 365 972 q 451 937 415 972 q 486 851 486 901 l 486 122 m 365 426 l 122 426 l 122 122 l 365 122 l 365 426 m 122 547 l 365 547 l 365 851 l 122 851 l 122 547 z "},"ø":{"ha":608,"x_min":0,"x_max":486,"o":"m 486 122 q 451 36 486 71 q 365 0 415 0 l 122 0 q 36 36 71 0 q 0 122 0 71 l 0 608 q 36 694 0 658 q 122 729 71 729 l 365 729 q 451 694 415 729 q 486 608 486 658 l 486 122 m 365 304 l 122 304 l 122 122 l 365 122 l 365 304 m 122 426 l 365 426 l 365 608 l 122 608 l 122 426 z "},"℠":{"ha":729,"x_min":0,"x_max":608,"o":"m 365 486 l 304 486 l 304 972 l 547 972 q 590 955 572 972 q 608 912 608 937 l 608 486 l 547 486 l 547 912 l 486 912 l 486 486 l 426 486 l 426 912 l 365 912 l 365 486 m 0 547 l 0 608 l 61 608 l 61 547 l 182 547 l 182 699 l 61 699 q 18 717 36 699 q 0 760 0 735 l 0 912 q 18 955 0 937 q 61 972 36 972 l 182 972 q 225 955 208 972 q 243 912 243 937 l 243 851 l 182 851 l 182 912 l 61 912 l 61 760 l 182 760 q 225 742 208 760 q 243 699 243 724 l 243 547 q 225 504 243 522 q 182 486 208 486 l 61 486 q 18 504 36 486 q 0 547 0 522 z "},"ℹ":{"ha":608,"x_min":0,"x_max":486,"o":"m 0 0 l 0 122 l 122 122 l 122 486 l 0 486 l 0 608 l 365 608 l 365 122 l 486 122 l 486 0 l 0 0 m 122 851 q 157 937 122 901 q 243 972 193 972 q 329 937 293 972 q 365 851 365 901 q 329 765 365 801 q 243 729 293 729 q 157 765 193 729 q 122 851 122 801 z "},"‥":{"ha":486,"x_min":0,"x_max":365,"o":"m 122 0 l 0 0 l 0 122 l 122 122 l 122 0 m 365 0 l 243 0 l 243 122 l 365 122 l 365 0 z "},"․":{"ha":243,"x_min":0,"x_max":122,"o":"m 122 0 l 0 0 l 0 122 l 122 122 l 122 0 z "},"∕":{"ha":486,"x_min":0,"x_max":365,"o":"m 122 0 l 0 0 l 243 972 l 365 972 l 122 0 z "},"⁄":{"ha":486,"x_min":0,"x_max":365,"o":"m 122 0 l 0 0 l 243 972 l 365 972 l 122 0 z "}," ":{"ha":243,"x_min":0,"x_max":0,"o":""},"​":{"ha":0,"x_min":0,"x_max":0,"o":""},"¨":{"ha":486,"x_min":91,"x_max":395,"o":"m 213 1033 l 91 1033 l 91 1155 l 213 1155 l 213 1033 m 395 1033 l 273 1033 l 273 1155 l 395 1155 l 395 1033 z "},"Ä":{"ha":608,"x_min":0,"x_max":486,"o":"m 122 365 l 365 365 l 365 851 l 122 851 l 122 365 m 122 0 l 0 0 l 0 851 q 36 937 0 901 q 122 972 71 972 l 365 972 q 451 937 415 972 q 486 851 486 901 l 486 0 l 365 0 l 365 243 l 122 243 l 122 0 m 213 1033 l 91 1033 l 91 1155 l 213 1155 l 213 1033 m 395 1033 l 273 1033 l 273 1155 l 395 1155 l 395 1033 z "},"ä":{"ha":608,"x_min":0,"x_max":486,"o":"m 122 122 l 365 122 l 365 365 l 122 365 l 122 122 m 0 122 l 0 365 q 36 451 0 415 q 122 486 71 486 l 365 486 l 365 608 l 0 608 q 36 694 0 658 q 122 729 71 729 l 365 729 q 451 694 415 729 q 486 608 486 658 l 486 0 l 122 0 q 36 36 71 0 q 0 122 0 71 m 213 851 l 91 851 l 91 972 l 213 972 l 213 851 m 395 851 l 273 851 l 273 972 l 395 972 l 395 851 z "},"Ë":{"ha":608,"x_min":0,"x_max":486,"o":"m 486 122 l 486 0 l 0 0 l 0 972 l 486 972 l 486 851 l 122 851 l 122 547 l 426 547 l 426 426 l 122 426 l 122 122 l 486 122 m 213 1033 l 91 1033 l 91 1155 l 213 1155 l 213 1033 m 395 1033 l 273 1033 l 273 1155 l 395 1155 l 395 1033 z "},"ë":{"ha":608,"x_min":0,"x_max":486,"o":"m 122 365 l 365 365 l 365 608 l 122 608 l 122 365 m 0 608 q 36 694 0 658 q 122 729 71 729 l 365 729 q 451 694 415 729 q 486 608 486 658 l 486 243 l 122 243 l 122 122 l 426 122 l 426 0 l 122 0 q 36 36 71 0 q 0 122 0 71 l 0 608 m 213 851 l 91 851 l 91 972 l 213 972 l 213 851 m 395 851 l 273 851 l 273 972 l 395 972 l 395 851 z "},"Ï":{"ha":365,"x_min":31,"x_max":334,"o":"m 243 0 l 122 0 l 122 972 l 243 972 l 243 0 m 152 1033 l 31 1033 l 31 1155 l 152 1155 l 152 1033 m 334 1033 l 213 1033 l 213 1155 l 334 1155 l 334 1033 z "},"ï":{"ha":365,"x_min":31,"x_max":335,"o":"m 243 0 l 122 0 l 122 729 l 243 729 l 243 0 m 152 851 l 31 851 l 31 972 l 152 972 l 152 851 m 335 851 l 213 851 l 213 972 l 335 972 l 335 851 z "},"Ö":{"ha":608,"x_min":0,"x_max":486,"o":"m 122 122 l 365 122 l 365 851 l 122 851 l 122 122 m 0 122 l 0 851 q 36 937 0 901 q 122 972 71 972 l 365 972 q 451 937 415 972 q 486 851 486 901 l 486 122 q 451 36 486 71 q 365 0 415 0 l 122 0 q 36 36 71 0 q 0 122 0 71 m 213 1033 l 91 1033 l 91 1155 l 213 1155 l 213 1033 m 395 1033 l 273 1033 l 273 1155 l 395 1155 l 395 1033 z "},"ö":{"ha":608,"x_min":0,"x_max":486,"o":"m 122 122 l 365 122 l 365 608 l 122 608 l 122 122 m 0 122 l 0 608 q 36 694 0 658 q 122 729 71 729 l 365 729 q 451 694 415 729 q 486 608 486 658 l 486 122 q 451 36 486 71 q 365 0 415 0 l 122 0 q 36 36 71 0 q 0 122 0 71 m 213 851 l 91 851 l 91 972 l 213 972 l 213 851 m 395 851 l 273 851 l 273 972 l 395 972 l 395 851 z "},"Ü":{"ha":608,"x_min":0,"x_max":486,"o":"m 0 972 l 122 972 l 122 122 l 365 122 l 365 972 l 486 972 l 486 122 q 451 36 486 71 q 365 0 415 0 l 122 0 q 36 36 71 0 q 0 122 0 71 l 0 972 m 213 1033 l 91 1033 l 91 1155 l 213 1155 l 213 1033 m 395 1033 l 273 1033 l 273 1155 l 395 1155 l 395 1033 z "},"ü":{"ha":608,"x_min":0,"x_max":486,"o":"m 0 729 l 122 729 l 122 122 l 365 122 l 365 729 l 486 729 l 486 122 q 451 36 486 71 q 365 0 415 0 l 122 0 q 36 36 71 0 q 0 122 0 71 l 0 729 m 213 851 l 91 851 l 91 972 l 213 972 l 213 851 m 395 851 l 273 851 l 273 972 l 395 972 l 395 851 z "},"Ÿ":{"ha":608,"x_min":0,"x_max":486,"o":"m 0 972 l 122 972 l 122 486 l 365 486 l 365 972 l 486 972 l 486 486 q 451 400 486 436 q 365 365 415 365 l 304 365 l 304 0 l 182 0 l 182 365 l 122 365 q 36 400 71 365 q 0 486 0 436 l 0 972 m 213 1033 l 91 1033 l 91 1155 l 213 1155 l 213 1033 m 395 1033 l 273 1033 l 273 1155 l 395 1155 l 395 1033 z "},"ÿ":{"ha":608,"x_min":0,"x_max":486,"o":"m 365 729 l 486 729 l 486 122 q 451 36 486 71 q 365 0 415 0 l 61 0 l 61 122 l 365 122 l 365 243 l 122 243 q 36 279 71 243 q 0 365 0 314 l 0 729 l 122 729 l 122 365 l 365 365 l 365 729 m 213 851 l 91 851 l 91 972 l 213 972 l 213 851 m 395 851 l 273 851 l 273 972 l 395 972 l 395 851 z "},"¯":{"ha":486,"x_min":91,"x_max":395,"o":"m 91 1033 l 91 1155 l 395 1155 l 395 1033 l 91 1033 z "},"Ā":{"ha":608,"x_min":0,"x_max":486,"o":"m 122 365 l 365 365 l 365 851 l 122 851 l 122 365 m 122 0 l 0 0 l 0 851 q 36 937 0 901 q 122 972 71 972 l 365 972 q 451 937 415 972 q 486 851 486 901 l 486 0 l 365 0 l 365 243 l 122 243 l 122 0 m 91 1033 l 91 1155 l 395 1155 l 395 1033 l 91 1033 z "},"ā":{"ha":608,"x_min":0,"x_max":486,"o":"m 122 122 l 365 122 l 365 365 l 122 365 l 122 122 m 0 122 l 0 365 q 36 451 0 415 q 122 486 71 486 l 365 486 l 365 608 l 0 608 q 36 694 0 658 q 122 729 71 729 l 365 729 q 451 694 415 729 q 486 608 486 658 l 486 0 l 122 0 q 36 36 71 0 q 0 122 0 71 m 91 851 l 91 972 l 395 972 l 395 851 l 91 851 z "},"Ē":{"ha":608,"x_min":0,"x_max":486,"o":"m 486 122 l 486 0 l 0 0 l 0 972 l 486 972 l 486 851 l 122 851 l 122 547 l 426 547 l 426 426 l 122 426 l 122 122 l 486 122 m 91 1033 l 91 1155 l 395 1155 l 395 1033 l 91 1033 z "},"ē":{"ha":608,"x_min":0,"x_max":486,"o":"m 122 365 l 365 365 l 365 608 l 122 608 l 122 365 m 0 608 q 36 694 0 658 q 122 729 71 729 l 365 729 q 451 694 415 729 q 486 608 486 658 l 486 243 l 122 243 l 122 122 l 426 122 l 426 0 l 122 0 q 36 36 71 0 q 0 122 0 71 l 0 608 m 91 851 l 91 972 l 395 972 l 395 851 l 91 851 z "},"Ī":{"ha":365,"x_min":31,"x_max":334,"o":"m 243 0 l 122 0 l 122 972 l 243 972 l 243 0 m 31 1033 l 31 1155 l 334 1155 l 334 1033 l 31 1033 z "},"ī":{"ha":365,"x_min":31,"x_max":335,"o":"m 243 0 l 122 0 l 122 729 l 243 729 l 243 0 m 31 851 l 31 972 l 335 972 l 335 851 l 31 851 z "},"Ō":{"ha":608,"x_min":0,"x_max":486,"o":"m 122 122 l 365 122 l 365 851 l 122 851 l 122 122 m 0 122 l 0 851 q 36 937 0 901 q 122 972 71 972 l 365 972 q 451 937 415 972 q 486 851 486 901 l 486 122 q 451 36 486 71 q 365 0 415 0 l 122 0 q 36 36 71 0 q 0 122 0 71 m 91 1033 l 91 1155 l 395 1155 l 395 1033 l 91 1033 z "},"ō":{"ha":608,"x_min":0,"x_max":486,"o":"m 122 122 l 365 122 l 365 608 l 122 608 l 122 122 m 0 122 l 0 608 q 36 694 0 658 q 122 729 71 729 l 365 729 q 451 694 415 729 q 486 608 486 658 l 486 122 q 451 36 486 71 q 365 0 415 0 l 122 0 q 36 36 71 0 q 0 122 0 71 m 91 851 l 91 972 l 395 972 l 395 851 l 91 851 z "},"Ū":{"ha":608,"x_min":0,"x_max":486,"o":"m 0 972 l 122 972 l 122 122 l 365 122 l 365 972 l 486 972 l 486 122 q 451 36 486 71 q 365 0 415 0 l 122 0 q 36 36 71 0 q 0 122 0 71 l 0 972 m 91 1033 l 91 1155 l 395 1155 l 395 1033 l 91 1033 z "},"ū":{"ha":608,"x_min":0,"x_max":486,"o":"m 0 729 l 122 729 l 122 122 l 365 122 l 365 729 l 486 729 l 486 122 q 451 36 486 71 q 365 0 415 0 l 122 0 q 36 36 71 0 q 0 122 0 71 l 0 729 m 91 851 l 91 972 l 395 972 l 395 851 l 91 851 z "},"Ȳ":{"ha":608,"x_min":0,"x_max":486,"o":"m 0 972 l 122 972 l 122 486 l 365 486 l 365 972 l 486 972 l 486 486 q 451 400 486 436 q 365 365 415 365 l 304 365 l 304 0 l 182 0 l 182 365 l 122 365 q 36 400 71 365 q 0 486 0 436 l 0 972 m 91 1033 l 91 1155 l 395 1155 l 395 1033 l 91 1033 z "},"ȳ":{"ha":608,"x_min":0,"x_max":486,"o":"m 365 729 l 486 729 l 486 122 q 451 36 486 71 q 365 0 415 0 l 61 0 l 61 122 l 365 122 l 365 243 l 122 243 q 36 279 71 243 q 0 365 0 314 l 0 729 l 122 729 l 122 365 l 365 365 l 365 729 m 91 851 l 91 972 l 395 972 l 395 851 l 91 851 z "},"˚":{"ha":486,"x_min":122,"x_max":365,"o":"m 122 1084 l 122 1165 q 145 1222 122 1198 q 203 1246 169 1246 l 284 1246 q 341 1222 317 1246 q 365 1165 365 1198 l 365 1084 q 341 1027 365 1050 q 284 1003 317 1003 l 203 1003 q 145 1027 169 1003 q 122 1084 122 1050 m 203 1165 l 203 1084 l 284 1084 l 284 1165 l 203 1165 z "},"Å":{"ha":608,"x_min":0,"x_max":486,"o":"m 122 365 l 365 365 l 365 851 l 122 851 l 122 365 m 122 0 l 0 0 l 0 851 q 36 937 0 901 q 122 972 71 972 l 365 972 q 451 937 415 972 q 486 851 486 901 l 486 0 l 365 0 l 365 243 l 122 243 l 122 0 m 122 1084 l 122 1165 q 145 1222 122 1198 q 203 1246 169 1246 l 284 1246 q 341 1222 317 1246 q 365 1165 365 1198 l 365 1084 q 341 1027 365 1050 q 284 1003 317 1003 l 203 1003 q 145 1027 169 1003 q 122 1084 122 1050 m 203 1165 l 203 1084 l 284 1084 l 284 1165 l 203 1165 z "},"å":{"ha":608,"x_min":0,"x_max":486,"o":"m 122 122 l 365 122 l 365 365 l 122 365 l 122 122 m 0 122 l 0 365 q 36 451 0 415 q 122 486 71 486 l 365 486 l 365 608 l 0 608 q 36 694 0 658 q 122 729 71 729 l 365 729 q 451 694 415 729 q 486 608 486 658 l 486 0 l 122 0 q 36 36 71 0 q 0 122 0 71 m 122 871 l 122 952 q 145 1010 122 986 q 203 1033 169 1033 l 284 1033 q 341 1010 317 1033 q 365 952 365 986 l 365 871 q 341 814 365 838 q 284 790 317 790 l 203 790 q 145 814 169 790 q 122 871 122 838 m 203 952 l 203 871 l 284 871 l 284 952 l 203 952 z "},"Ů":{"ha":608,"x_min":0,"x_max":486,"o":"m 0 972 l 122 972 l 122 122 l 365 122 l 365 972 l 486 972 l 486 122 q 451 36 486 71 q 365 0 415 0 l 122 0 q 36 36 71 0 q 0 122 0 71 l 0 972 m 122 1084 l 122 1165 q 145 1222 122 1198 q 203 1246 169 1246 l 284 1246 q 341 1222 317 1246 q 365 1165 365 1198 l 365 1084 q 341 1027 365 1050 q 284 1003 317 1003 l 203 1003 q 145 1027 169 1003 q 122 1084 122 1050 m 203 1165 l 203 1084 l 284 1084 l 284 1165 l 203 1165 z "},"ů":{"ha":608,"x_min":0,"x_max":486,"o":"m 0 729 l 122 729 l 122 122 l 365 122 l 365 729 l 486 729 l 486 122 q 451 36 486 71 q 365 0 415 0 l 122 0 q 36 36 71 0 q 0 122 0 71 l 0 729 m 122 871 l 122 952 q 145 1010 122 986 q 203 1033 169 1033 l 284 1033 q 341 1010 317 1033 q 365 952 365 986 l 365 871 q 341 814 365 838 q 284 790 317 790 l 203 790 q 145 814 169 790 q 122 871 122 838 m 203 952 l 203 871 l 284 871 l 284 952 l 203 952 z "},"˙":{"ha":486,"x_min":182,"x_max":304,"o":"m 304 1033 l 182 1033 l 182 1155 l 304 1155 l 304 1033 z "},"Ċ":{"ha":608,"x_min":0,"x_max":486,"o":"m 365 304 l 486 304 l 486 122 q 451 36 486 71 q 365 0 415 0 l 122 0 q 36 36 71 0 q 0 122 0 71 l 0 851 q 36 937 0 901 q 122 972 71 972 l 365 972 q 451 937 415 972 q 486 851 486 901 l 486 669 l 365 669 l 365 851 l 122 851 l 122 122 l 365 122 l 365 304 m 304 1033 l 182 1033 l 182 1155 l 304 1155 l 304 1033 z "},"ċ":{"ha":608,"x_min":0,"x_max":486,"o":"m 486 608 l 486 486 l 365 486 l 365 608 l 122 608 l 122 122 l 365 122 l 365 243 l 486 243 l 486 122 q 451 36 486 71 q 365 0 415 0 l 122 0 q 36 36 71 0 q 0 122 0 71 l 0 608 q 36 694 0 658 q 122 729 71 729 l 365 729 q 451 694 415 729 q 486 608 486 658 m 304 851 l 182 851 l 182 972 l 304 972 l 304 851 z "},"Ė":{"ha":608,"x_min":0,"x_max":486,"o":"m 486 122 l 486 0 l 0 0 l 0 972 l 486 972 l 486 851 l 122 851 l 122 547 l 426 547 l 426 426 l 122 426 l 122 122 l 486 122 m 304 1033 l 182 1033 l 182 1155 l 304 1155 l 304 1033 z "},"ė":{"ha":608,"x_min":0,"x_max":486,"o":"m 122 365 l 365 365 l 365 608 l 122 608 l 122 365 m 0 608 q 36 694 0 658 q 122 729 71 729 l 365 729 q 451 694 415 729 q 486 608 486 658 l 486 243 l 122 243 l 122 122 l 426 122 l 426 0 l 122 0 q 36 36 71 0 q 0 122 0 71 l 0 608 m 304 851 l 182 851 l 182 972 l 304 972 l 304 851 z "},"Ġ":{"ha":608,"x_min":0,"x_max":486,"o":"m 486 851 l 486 729 l 365 729 l 365 851 l 122 851 l 122 122 l 365 122 l 365 426 l 243 426 l 243 547 l 486 547 l 486 122 q 451 36 486 71 q 365 0 415 0 l 122 0 q 36 36 71 0 q 0 122 0 71 l 0 851 q 36 937 0 901 q 122 972 71 972 l 365 972 q 451 937 415 972 q 486 851 486 901 m 304 1033 l 182 1033 l 182 1155 l 304 1155 l 304 1033 z "},"ġ":{"ha":608,"x_min":0,"x_max":486,"o":"m 365 608 l 122 608 l 122 122 l 365 122 l 365 608 m 486 729 l 486 -61 q 451 -147 486 -111 q 365 -182 415 -182 l 61 -182 l 61 -61 l 365 -61 l 365 0 l 122 0 q 36 36 71 0 q 0 122 0 71 l 0 608 q 36 694 0 658 q 122 729 71 729 l 486 729 m 304 851 l 182 851 l 182 972 l 304 972 l 304 851 z "},"İ":{"ha":243,"x_min":0,"x_max":122,"o":"m 122 0 l 0 0 l 0 972 l 122 972 l 122 0 m 122 1033 l 0 1033 l 0 1155 l 122 1155 l 122 1033 z "},"ı":{"ha":243,"x_min":0,"x_max":122,"o":"m 122 0 l 0 0 l 0 729 l 122 729 l 122 0 z "},"Ṅ":{"ha":608,"x_min":0,"x_max":486,"o":"m 486 0 l 365 0 l 365 851 l 122 851 l 122 0 l 0 0 l 0 972 l 365 972 q 451 937 415 972 q 486 851 486 901 l 486 0 m 304 1033 l 182 1033 l 182 1155 l 304 1155 l 304 1033 z "},"ṅ":{"ha":608,"x_min":0,"x_max":486,"o":"m 486 0 l 365 0 l 365 608 l 122 608 l 122 0 l 0 0 l 0 729 l 365 729 q 451 694 415 729 q 486 608 486 658 l 486 0 m 304 851 l 182 851 l 182 972 l 304 972 l 304 851 z "},"Ż":{"ha":608,"x_min":0,"x_max":486,"o":"m 0 851 l 0 972 l 486 972 l 486 547 q 451 461 486 497 q 365 426 415 426 l 122 426 l 122 122 l 486 122 l 486 0 l 0 0 l 0 426 q 36 512 0 476 q 122 547 71 547 l 365 547 l 365 851 l 0 851 m 304 1033 l 182 1033 l 182 1155 l 304 1155 l 304 1033 z "},"ż":{"ha":608,"x_min":0,"x_max":486,"o":"m 0 608 l 0 729 l 486 729 l 486 426 q 451 340 486 375 q 365 304 415 304 l 122 304 l 122 122 l 486 122 l 486 0 l 0 0 l 0 304 q 36 390 0 354 q 122 426 71 426 l 365 426 l 365 608 l 0 608 m 304 851 l 182 851 l 182 972 l 304 972 l 304 851 z "},"Ɔ":{"ha":608,"x_min":0,"x_max":486,"o":"m 122 608 l 0 608 l 0 851 q 36 937 0 901 q 122 972 71 972 l 365 972 q 451 937 415 972 q 486 851 486 901 l 486 122 q 451 36 486 71 q 365 0 415 0 l 122 0 q 36 36 71 0 q 0 122 0 71 l 0 365 l 122 365 l 122 122 l 365 122 l 365 851 l 122 851 l 122 608 z "},"ɔ":{"ha":608,"x_min":0,"x_max":486,"o":"m 122 486 l 0 486 l 0 608 q 36 694 0 658 q 122 729 71 729 l 365 729 q 451 694 415 729 q 486 608 486 658 l 486 122 q 451 36 486 71 q 365 0 415 0 l 122 0 q 36 36 71 0 q 0 122 0 71 l 0 243 l 122 243 l 122 122 l 365 122 l 365 608 l 122 608 l 122 486 z "},"Ŋ":{"ha":608,"x_min":0,"x_max":486,"o":"m 365 851 l 122 851 l 122 0 l 0 0 l 0 972 l 365 972 q 451 937 415 972 q 486 851 486 901 l 486 -61 q 451 -147 486 -111 q 365 -182 415 -182 l 243 -182 l 243 -61 l 365 -61 l 365 851 z "},"ŋ":{"ha":608,"x_min":0,"x_max":486,"o":"m 365 608 l 122 608 l 122 0 l 0 0 l 0 729 l 365 729 q 451 694 415 729 q 486 608 486 658 l 486 -61 q 451 -147 486 -111 q 365 -182 415 -182 l 243 -182 l 243 -61 l 365 -61 l 365 608 z "},"Ɛ":{"ha":608,"x_min":0,"x_max":486,"o":"m 365 304 l 486 304 l 486 122 q 451 36 486 71 q 365 0 415 0 l 122 0 q 36 36 71 0 q 0 122 0 71 l 0 365 q 36 451 0 415 q 115 486 69 484 q 36 522 69 489 q 0 608 0 557 l 0 851 q 36 937 0 901 q 122 972 71 972 l 365 972 q 451 937 415 972 q 486 851 486 901 l 486 669 l 365 669 l 365 851 l 122 851 l 122 547 l 304 547 l 304 426 l 122 426 l 122 122 l 365 122 l 365 304 z "},"ɛ":{"ha":608,"x_min":0,"x_max":486,"o":"m 365 122 l 365 243 l 486 243 l 486 122 q 451 36 486 71 q 365 0 415 0 l 122 0 q 36 36 71 0 q 0 122 0 71 l 0 243 q 36 329 0 293 q 115 365 69 362 q 36 400 69 367 q 0 486 0 436 l 0 608 q 36 694 0 658 q 122 729 71 729 l 365 729 q 451 694 415 729 q 486 608 486 658 l 486 486 l 365 486 l 365 608 l 122 608 l 122 426 l 304 426 l 304 304 l 122 304 l 122 122 l 365 122 z "},"Ꞌ":{"ha":243,"x_min":0,"x_max":122,"o":"m 122 243 l 0 243 l 0 972 l 122 972 l 122 243 z "},"ꞌ":{"ha":243,"x_min":0,"x_max":122,"o":"m 122 486 l 0 486 l 0 972 l 122 972 l 122 486 z "},"Ə":{"ha":608,"x_min":0,"x_max":486,"o":"m 365 486 l 122 486 l 122 122 l 365 122 l 365 486 m 486 122 q 451 36 486 71 q 365 0 415 0 l 122 0 q 36 36 71 0 q 0 122 0 71 l 0 608 l 365 608 l 365 851 l 122 851 l 122 729 l 0 729 l 0 851 q 36 937 0 901 q 122 972 71 972 l 365 972 q 451 937 415 972 q 486 851 486 901 l 486 122 z "},"ə":{"ha":608,"x_min":0,"x_max":486,"o":"m 365 304 l 122 304 l 122 122 l 365 122 l 365 304 m 486 122 q 451 36 486 71 q 365 0 415 0 l 122 0 q 36 36 71 0 q 0 122 0 71 l 0 426 l 365 426 l 365 608 l 122 608 l 122 547 l 0 547 l 0 608 q 36 694 0 658 q 122 729 71 729 l 365 729 q 451 694 415 729 q 486 608 486 658 l 486 122 z "},"Ɲ":{"ha":608,"x_min":-61,"x_max":486,"o":"m 0 972 l 365 972 q 451 937 415 972 q 486 851 486 901 l 486 0 l 365 0 l 365 851 l 122 851 l 122 -61 q 86 -147 122 -111 q 0 -182 50 -182 l -61 -182 l -61 -61 l 0 -61 l 0 972 z "},"ɲ":{"ha":608,"x_min":-61,"x_max":486,"o":"m 0 729 l 365 729 q 451 694 415 729 q 486 608 486 658 l 486 0 l 365 0 l 365 608 l 122 608 l 122 -61 q 86 -147 122 -111 q 0 -182 50 -182 l -61 -182 l -61 -61 l 0 -61 l 0 729 z "},"ĸ":{"ha":608,"x_min":0,"x_max":486,"o":"m 122 0 l 0 0 l 0 729 l 122 729 l 122 425 l 365 425 l 365 729 l 486 729 l 486 486 q 451 400 486 436 q 372 365 417 367 q 451 329 417 362 q 486 243 486 293 l 486 0 l 365 0 l 365 304 l 122 304 l 122 0 z "},"ˇ":{"ha":486,"x_min":61,"x_max":426,"o":"m 426 1155 l 304 1033 l 182 1033 l 61 1155 l 426 1155 z "},"Č":{"ha":608,"x_min":0,"x_max":486,"o":"m 426 1155 l 304 1033 l 182 1033 l 61 1155 l 426 1155 m 365 304 l 486 304 l 486 122 q 451 36 486 71 q 365 0 415 0 l 122 0 q 36 36 71 0 q 0 122 0 71 l 0 851 q 36 937 0 901 q 122 972 71 972 l 365 972 q 451 937 415 972 q 486 851 486 901 l 486 669 l 365 669 l 365 851 l 122 851 l 122 122 l 365 122 l 365 304 z "},"č":{"ha":608,"x_min":0,"x_max":486,"o":"m 426 972 l 304 851 l 182 851 l 61 972 l 426 972 m 486 608 l 486 486 l 365 486 l 365 608 l 122 608 l 122 122 l 365 122 l 365 243 l 486 243 l 486 122 q 451 36 486 71 q 365 0 415 0 l 122 0 q 36 36 71 0 q 0 122 0 71 l 0 608 q 36 694 0 658 q 122 729 71 729 l 365 729 q 451 694 415 729 q 486 608 486 658 z "},"Š":{"ha":608,"x_min":0,"x_max":486,"o":"m 0 122 l 0 243 l 122 243 l 122 122 l 365 122 l 365 426 l 122 426 q 36 461 71 426 q 0 547 0 497 l 0 851 q 36 937 0 901 q 122 972 71 972 l 365 972 q 451 937 415 972 q 486 851 486 901 l 486 729 l 365 729 l 365 851 l 122 851 l 122 547 l 365 547 q 451 512 415 547 q 486 426 486 476 l 486 122 q 451 36 486 71 q 365 0 415 0 l 122 0 q 36 36 71 0 q 0 122 0 71 m 426 1155 l 304 1033 l 182 1033 l 61 1155 l 426 1155 z "},"š":{"ha":608,"x_min":0,"x_max":486,"o":"m 0 122 l 0 182 l 122 182 l 122 122 l 365 122 l 365 304 l 122 304 q 36 340 71 304 q 0 426 0 375 l 0 608 q 36 694 0 658 q 122 729 71 729 l 365 729 q 451 694 415 729 q 486 608 486 658 l 486 547 l 365 547 l 365 608 l 122 608 l 122 426 l 365 426 q 451 390 415 426 q 486 304 486 354 l 486 122 q 451 36 486 71 q 365 0 415 0 l 122 0 q 36 36 71 0 q 0 122 0 71 m 426 972 l 304 851 l 182 851 l 61 972 l 426 972 z "},"Ž":{"ha":608,"x_min":0,"x_max":486,"o":"m 0 851 l 0 972 l 486 972 l 486 547 q 451 461 486 497 q 365 426 415 426 l 122 426 l 122 122 l 486 122 l 486 0 l 0 0 l 0 426 q 36 512 0 476 q 122 547 71 547 l 365 547 l 365 851 l 0 851 m 426 1155 l 304 1033 l 182 1033 l 61 1155 l 426 1155 z "},"ž":{"ha":608,"x_min":0,"x_max":486,"o":"m 0 608 l 0 729 l 486 729 l 486 426 q 451 340 486 375 q 365 304 415 304 l 122 304 l 122 122 l 486 122 l 486 0 l 0 0 l 0 304 q 36 390 0 354 q 122 426 71 426 l 365 426 l 365 608 l 0 608 m 426 972 l 304 851 l 182 851 l 61 972 l 426 972 z "},"Ǎ":{"ha":608,"x_min":0,"x_max":486,"o":"m 122 365 l 365 365 l 365 851 l 122 851 l 122 365 m 122 0 l 0 0 l 0 851 q 36 937 0 901 q 122 972 71 972 l 365 972 q 451 937 415 972 q 486 851 486 901 l 486 0 l 365 0 l 365 243 l 122 243 l 122 0 m 426 1155 l 304 1033 l 182 1033 l 61 1155 l 426 1155 z "},"ǎ":{"ha":608,"x_min":0,"x_max":486,"o":"m 122 122 l 365 122 l 365 365 l 122 365 l 122 122 m 0 122 l 0 365 q 36 451 0 415 q 122 486 71 486 l 365 486 l 365 608 l 0 608 q 36 694 0 658 q 122 729 71 729 l 365 729 q 451 694 415 729 q 486 608 486 658 l 486 0 l 122 0 q 36 36 71 0 q 0 122 0 71 m 426 972 l 304 851 l 182 851 l 61 972 l 426 972 z "},"Ě":{"ha":608,"x_min":0,"x_max":486,"o":"m 486 122 l 486 0 l 0 0 l 0 972 l 486 972 l 486 851 l 122 851 l 122 547 l 426 547 l 426 426 l 122 426 l 122 122 l 486 122 m 426 1155 l 304 1033 l 182 1033 l 61 1155 l 426 1155 z "},"ě":{"ha":608,"x_min":0,"x_max":486,"o":"m 122 365 l 365 365 l 365 608 l 122 608 l 122 365 m 0 608 q 36 694 0 658 q 122 729 71 729 l 365 729 q 451 694 415 729 q 486 608 486 658 l 486 243 l 122 243 l 122 122 l 426 122 l 426 0 l 122 0 q 36 36 71 0 q 0 122 0 71 l 0 608 m 426 972 l 304 851 l 182 851 l 61 972 l 426 972 z "},"Ǧ":{"ha":608,"x_min":0,"x_max":486,"o":"m 486 851 l 486 729 l 365 729 l 365 851 l 122 851 l 122 122 l 365 122 l 365 426 l 243 426 l 243 547 l 486 547 l 486 122 q 451 36 486 71 q 365 0 415 0 l 122 0 q 36 36 71 0 q 0 122 0 71 l 0 851 q 36 937 0 901 q 122 972 71 972 l 365 972 q 451 937 415 972 q 486 851 486 901 m 426 1155 l 304 1033 l 182 1033 l 61 1155 l 426 1155 z "},"ǧ":{"ha":608,"x_min":0,"x_max":486,"o":"m 365 608 l 122 608 l 122 122 l 365 122 l 365 608 m 486 729 l 486 -61 q 451 -147 486 -111 q 365 -182 415 -182 l 61 -182 l 61 -61 l 365 -61 l 365 0 l 122 0 q 36 36 71 0 q 0 122 0 71 l 0 608 q 36 694 0 658 q 122 729 71 729 l 486 729 m 426 972 l 304 851 l 182 851 l 61 972 l 426 972 z "},"Ȟ":{"ha":608,"x_min":0,"x_max":486,"o":"m 122 426 l 122 0 l 0 0 l 0 972 l 122 972 l 122 547 l 365 547 l 365 972 l 486 972 l 486 0 l 365 0 l 365 426 l 122 426 m 426 1155 l 304 1033 l 182 1033 l 61 1155 l 426 1155 z "},"ȟ":{"ha":729,"x_min":0,"x_max":608,"o":"m 243 0 l 122 0 l 122 972 l 243 972 l 243 729 l 486 729 q 572 694 537 729 q 608 608 608 658 l 608 0 l 486 0 l 486 608 l 243 608 l 243 0 m 365 1155 l 243 1033 l 122 1033 l 0 1155 l 365 1155 z "},"Ǐ":{"ha":365,"x_min":0,"x_max":365,"o":"m 243 0 l 122 0 l 122 972 l 243 972 l 243 0 m 365 1155 l 243 1033 l 122 1033 l 0 1155 l 365 1155 z "},"ǐ":{"ha":365,"x_min":0,"x_max":365,"o":"m 243 0 l 122 0 l 122 729 l 243 729 l 243 0 m 365 972 l 243 851 l 122 851 l 0 972 l 365 972 z "},"Ǒ":{"ha":608,"x_min":0,"x_max":486,"o":"m 122 122 l 365 122 l 365 851 l 122 851 l 122 122 m 0 122 l 0 851 q 36 937 0 901 q 122 972 71 972 l 365 972 q 451 937 415 972 q 486 851 486 901 l 486 122 q 451 36 486 71 q 365 0 415 0 l 122 0 q 36 36 71 0 q 0 122 0 71 m 426 1155 l 304 1033 l 182 1033 l 61 1155 l 426 1155 z "},"ǒ":{"ha":608,"x_min":0,"x_max":486,"o":"m 122 122 l 365 122 l 365 608 l 122 608 l 122 122 m 0 122 l 0 608 q 36 694 0 658 q 122 729 71 729 l 365 729 q 451 694 415 729 q 486 608 486 658 l 486 122 q 451 36 486 71 q 365 0 415 0 l 122 0 q 36 36 71 0 q 0 122 0 71 m 426 972 l 304 851 l 182 851 l 61 972 l 426 972 z "},"Ǔ":{"ha":608,"x_min":0,"x_max":486,"o":"m 0 972 l 122 972 l 122 122 l 365 122 l 365 972 l 486 972 l 486 122 q 451 36 486 71 q 365 0 415 0 l 122 0 q 36 36 71 0 q 0 122 0 71 l 0 972 m 426 1155 l 304 1033 l 182 1033 l 61 1155 l 426 1155 z "},"ǔ":{"ha":608,"x_min":0,"x_max":486,"o":"m 0 729 l 122 729 l 122 122 l 365 122 l 365 729 l 486 729 l 486 122 q 451 36 486 71 q 365 0 415 0 l 122 0 q 36 36 71 0 q 0 122 0 71 l 0 729 m 426 972 l 304 851 l 182 851 l 61 972 l 426 972 z "},"Ř":{"ha":608,"x_min":0,"x_max":486,"o":"m 122 486 l 365 486 l 365 851 l 122 851 l 122 486 m 122 0 l 0 0 l 0 972 l 365 972 q 451 937 415 972 q 486 851 486 901 l 486 547 q 451 461 486 497 q 372 426 417 428 q 451 390 417 423 q 486 304 486 354 l 486 0 l 365 0 l 365 365 l 122 365 l 122 0 m 426 1155 l 304 1033 l 182 1033 l 61 1155 l 426 1155 z "},"ř":{"ha":608,"x_min":0,"x_max":486,"o":"m 486 426 l 365 426 l 365 608 l 122 608 l 122 0 l 0 0 l 0 729 l 365 729 q 451 694 415 729 q 486 608 486 658 l 486 426 m 426 972 l 304 851 l 182 851 l 61 972 l 426 972 z "},"Ň":{"ha":608,"x_min":0,"x_max":486,"o":"m 486 0 l 365 0 l 365 851 l 122 851 l 122 0 l 0 0 l 0 972 l 365 972 q 451 937 415 972 q 486 851 486 901 l 486 0 m 426 1155 l 304 1033 l 182 1033 l 61 1155 l 426 1155 z "},"ň":{"ha":608,"x_min":0,"x_max":486,"o":"m 486 0 l 365 0 l 365 608 l 122 608 l 122 0 l 0 0 l 0 729 l 365 729 q 451 694 415 729 q 486 608 486 658 l 486 0 m 426 972 l 304 851 l 182 851 l 61 972 l 426 972 z "},"ˆ":{"ha":486,"x_min":61,"x_max":426,"o":"m 426 1033 l 61 1033 l 182 1155 l 304 1155 l 426 1033 z "},"Â":{"ha":608,"x_min":0,"x_max":486,"o":"m 122 365 l 365 365 l 365 851 l 122 851 l 122 365 m 122 0 l 0 0 l 0 851 q 36 937 0 901 q 122 972 71 972 l 365 972 q 451 937 415 972 q 486 851 486 901 l 486 0 l 365 0 l 365 243 l 122 243 l 122 0 m 426 1033 l 61 1033 l 182 1155 l 304 1155 l 426 1033 z "},"â":{"ha":608,"x_min":0,"x_max":486,"o":"m 122 122 l 365 122 l 365 365 l 122 365 l 122 122 m 0 122 l 0 365 q 36 451 0 415 q 122 486 71 486 l 365 486 l 365 608 l 0 608 q 36 694 0 658 q 122 729 71 729 l 365 729 q 451 694 415 729 q 486 608 486 658 l 486 0 l 122 0 q 36 36 71 0 q 0 122 0 71 m 426 851 l 61 851 l 182 972 l 304 972 l 426 851 z "},"Ê":{"ha":608,"x_min":0,"x_max":486,"o":"m 486 122 l 486 0 l 0 0 l 0 972 l 486 972 l 486 851 l 122 851 l 122 547 l 426 547 l 426 426 l 122 426 l 122 122 l 486 122 m 426 1033 l 61 1033 l 182 1155 l 304 1155 l 426 1033 z "},"ê":{"ha":608,"x_min":0,"x_max":486,"o":"m 122 365 l 365 365 l 365 608 l 122 608 l 122 365 m 0 608 q 36 694 0 658 q 122 729 71 729 l 365 729 q 451 694 415 729 q 486 608 486 658 l 486 243 l 122 243 l 122 122 l 426 122 l 426 0 l 122 0 q 36 36 71 0 q 0 122 0 71 l 0 608 m 426 851 l 61 851 l 182 972 l 304 972 l 426 851 z "},"Î":{"ha":365,"x_min":0,"x_max":365,"o":"m 243 0 l 122 0 l 122 972 l 243 972 l 243 0 m 365 1033 l 0 1033 l 122 1155 l 243 1155 l 365 1033 z "},"î":{"ha":365,"x_min":0,"x_max":365,"o":"m 243 0 l 122 0 l 122 729 l 243 729 l 243 0 m 365 851 l 0 851 l 122 972 l 243 972 l 365 851 z "},"Ô":{"ha":608,"x_min":0,"x_max":486,"o":"m 122 122 l 365 122 l 365 851 l 122 851 l 122 122 m 0 122 l 0 851 q 36 937 0 901 q 122 972 71 972 l 365 972 q 451 937 415 972 q 486 851 486 901 l 486 122 q 451 36 486 71 q 365 0 415 0 l 122 0 q 36 36 71 0 q 0 122 0 71 m 426 1033 l 61 1033 l 182 1155 l 304 1155 l 426 1033 z "},"ô":{"ha":608,"x_min":0,"x_max":486,"o":"m 122 122 l 365 122 l 365 608 l 122 608 l 122 122 m 0 122 l 0 608 q 36 694 0 658 q 122 729 71 729 l 365 729 q 451 694 415 729 q 486 608 486 658 l 486 122 q 451 36 486 71 q 365 0 415 0 l 122 0 q 36 36 71 0 q 0 122 0 71 m 426 851 l 61 851 l 182 972 l 304 972 l 426 851 z "},"Û":{"ha":608,"x_min":0,"x_max":486,"o":"m 0 972 l 122 972 l 122 122 l 365 122 l 365 972 l 486 972 l 486 122 q 451 36 486 71 q 365 0 415 0 l 122 0 q 36 36 71 0 q 0 122 0 71 l 0 972 m 426 1033 l 61 1033 l 182 1155 l 304 1155 l 426 1033 z "},"û":{"ha":608,"x_min":0,"x_max":486,"o":"m 0 729 l 122 729 l 122 122 l 365 122 l 365 729 l 486 729 l 486 122 q 451 36 486 71 q 365 0 415 0 l 122 0 q 36 36 71 0 q 0 122 0 71 l 0 729 m 426 851 l 61 851 l 182 972 l 304 972 l 426 851 z "},"Ĉ":{"ha":608,"x_min":0,"x_max":486,"o":"m 426 1033 l 61 1033 l 182 1155 l 304 1155 l 426 1033 m 365 304 l 486 304 l 486 122 q 451 36 486 71 q 365 0 415 0 l 122 0 q 36 36 71 0 q 0 122 0 71 l 0 851 q 36 937 0 901 q 122 972 71 972 l 365 972 q 451 937 415 972 q 486 851 486 901 l 486 669 l 365 669 l 365 851 l 122 851 l 122 122 l 365 122 l 365 304 z "},"ĉ":{"ha":608,"x_min":0,"x_max":486,"o":"m 426 851 l 61 851 l 182 972 l 304 972 l 426 851 m 486 608 l 486 486 l 365 486 l 365 608 l 122 608 l 122 122 l 365 122 l 365 243 l 486 243 l 486 122 q 451 36 486 71 q 365 0 415 0 l 122 0 q 36 36 71 0 q 0 122 0 71 l 0 608 q 36 694 0 658 q 122 729 71 729 l 365 729 q 451 694 415 729 q 486 608 486 658 z "},"Ĝ":{"ha":608,"x_min":0,"x_max":486,"o":"m 486 851 l 486 729 l 365 729 l 365 851 l 122 851 l 122 122 l 365 122 l 365 426 l 243 426 l 243 547 l 486 547 l 486 122 q 451 36 486 71 q 365 0 415 0 l 122 0 q 36 36 71 0 q 0 122 0 71 l 0 851 q 36 937 0 901 q 122 972 71 972 l 365 972 q 451 937 415 972 q 486 851 486 901 m 426 1033 l 61 1033 l 182 1155 l 304 1155 l 426 1033 z "},"ĝ":{"ha":608,"x_min":0,"x_max":486,"o":"m 365 608 l 122 608 l 122 122 l 365 122 l 365 608 m 486 729 l 486 -61 q 451 -147 486 -111 q 365 -182 415 -182 l 61 -182 l 61 -61 l 365 -61 l 365 0 l 122 0 q 36 36 71 0 q 0 122 0 71 l 0 608 q 36 694 0 658 q 122 729 71 729 l 486 729 m 426 851 l 61 851 l 182 972 l 304 972 l 426 851 z "},"Ĥ":{"ha":608,"x_min":0,"x_max":486,"o":"m 122 426 l 122 0 l 0 0 l 0 972 l 122 972 l 122 547 l 365 547 l 365 972 l 486 972 l 486 0 l 365 0 l 365 426 l 122 426 m 426 1033 l 61 1033 l 182 1155 l 304 1155 l 426 1033 z "},"ĥ":{"ha":729,"x_min":0,"x_max":608,"o":"m 243 0 l 122 0 l 122 972 l 243 972 l 243 729 l 486 729 q 572 694 537 729 q 608 608 608 658 l 608 0 l 486 0 l 486 608 l 243 608 l 243 0 m 365 1033 l 0 1033 l 122 1155 l 243 1155 l 365 1033 z "},"Ŝ":{"ha":608,"x_min":0,"x_max":486,"o":"m 0 122 l 0 243 l 122 243 l 122 122 l 365 122 l 365 426 l 122 426 q 36 461 71 426 q 0 547 0 497 l 0 851 q 36 937 0 901 q 122 972 71 972 l 365 972 q 451 937 415 972 q 486 851 486 901 l 486 729 l 365 729 l 365 851 l 122 851 l 122 547 l 365 547 q 451 512 415 547 q 486 426 486 476 l 486 122 q 451 36 486 71 q 365 0 415 0 l 122 0 q 36 36 71 0 q 0 122 0 71 m 426 1033 l 61 1033 l 182 1155 l 304 1155 l 426 1033 z "},"ŝ":{"ha":608,"x_min":0,"x_max":486,"o":"m 0 122 l 0 182 l 122 182 l 122 122 l 365 122 l 365 304 l 122 304 q 36 340 71 304 q 0 426 0 375 l 0 608 q 36 694 0 658 q 122 729 71 729 l 365 729 q 451 694 415 729 q 486 608 486 658 l 486 547 l 365 547 l 365 608 l 122 608 l 122 426 l 365 426 q 451 390 415 426 q 486 304 486 354 l 486 122 q 451 36 486 71 q 365 0 415 0 l 122 0 q 36 36 71 0 q 0 122 0 71 m 426 851 l 61 851 l 182 972 l 304 972 l 426 851 z "},"¸":{"ha":486,"x_min":61,"x_max":365,"o":"m 365 -61 l 243 -182 l 61 -182 l 182 -61 l 365 -61 z "},"Ç":{"ha":608,"x_min":0,"x_max":486,"o":"m 365 304 l 486 304 l 486 122 q 451 36 486 71 q 365 0 415 0 l 122 0 q 36 36 71 0 q 0 122 0 71 l 0 851 q 36 937 0 901 q 122 972 71 972 l 365 972 q 451 937 415 972 q 486 851 486 901 l 486 669 l 365 669 l 365 851 l 122 851 l 122 122 l 365 122 l 365 304 m 365 -61 l 243 -182 l 61 -182 l 182 -61 l 365 -61 z "},"ç":{"ha":608,"x_min":0,"x_max":486,"o":"m 486 608 l 486 486 l 365 486 l 365 608 l 122 608 l 122 122 l 365 122 l 365 243 l 486 243 l 486 122 q 451 36 486 71 q 365 0 415 0 l 122 0 q 36 36 71 0 q 0 122 0 71 l 0 608 q 36 694 0 658 q 122 729 71 729 l 365 729 q 451 694 415 729 q 486 608 486 658 m 365 -61 l 243 -182 l 61 -182 l 182 -61 l 365 -61 z "},"Ģ":{"ha":608,"x_min":0,"x_max":486,"o":"m 486 851 l 486 729 l 365 729 l 365 851 l 122 851 l 122 122 l 365 122 l 365 426 l 243 426 l 243 547 l 486 547 l 486 122 q 451 36 486 71 q 365 0 415 0 l 122 0 q 36 36 71 0 q 0 122 0 71 l 0 851 q 36 937 0 901 q 122 972 71 972 l 365 972 q 451 937 415 972 q 486 851 486 901 m 365 -61 l 243 -182 l 61 -182 l 182 -61 l 365 -61 z "},"ģ":{"ha":608,"x_min":0,"x_max":486,"o":"m 365 608 l 122 608 l 122 122 l 365 122 l 365 608 m 486 729 l 486 -61 q 451 -147 486 -111 q 365 -182 415 -182 l 61 -182 l 61 -61 l 365 -61 l 365 0 l 122 0 q 36 36 71 0 q 0 122 0 71 l 0 608 q 36 694 0 658 q 122 729 71 729 l 486 729 m 304 820 l 182 820 l 182 942 q 218 1028 182 992 q 304 1064 254 1064 l 304 820 z "},"Ķ":{"ha":608,"x_min":0,"x_max":486,"o":"m 122 0 l 0 0 l 0 972 l 122 972 l 122 547 l 365 547 l 365 972 l 486 972 l 486 608 q 451 522 486 557 q 372 486 417 489 q 451 451 417 484 q 486 365 486 415 l 486 0 l 365 0 l 365 425 l 122 425 l 122 0 m 365 -61 l 243 -182 l 61 -182 l 182 -61 l 365 -61 z "},"ķ":{"ha":608,"x_min":0,"x_max":486,"o":"m 122 0 l 0 0 l 0 972 l 122 972 l 122 425 l 365 425 l 365 729 l 486 729 l 486 486 q 451 400 486 436 q 372 365 417 367 q 451 329 417 362 q 486 243 486 293 l 486 0 l 365 0 l 365 304 l 122 304 l 122 0 m 365 -61 l 243 -182 l 61 -182 l 182 -61 l 365 -61 z "},"Ļ":{"ha":608,"x_min":0,"x_max":486,"o":"m 0 972 l 122 972 l 122 122 l 486 122 l 486 0 l 0 0 l 0 972 m 365 -61 l 243 -182 l 61 -182 l 182 -61 l 365 -61 z "},"ļ":{"ha":365,"x_min":-61,"x_max":243,"o":"m 0 972 l 122 972 l 122 122 l 243 122 l 243 0 l 122 0 q 36 36 71 0 q 0 122 0 71 l 0 972 m 243 -61 l 122 -182 l -61 -182 l 61 -61 l 243 -61 z "},"Ņ":{"ha":608,"x_min":0,"x_max":486,"o":"m 486 0 l 365 0 l 365 851 l 122 851 l 122 0 l 0 0 l 0 972 l 365 972 q 451 937 415 972 q 486 851 486 901 l 486 0 m 365 -61 l 243 -182 l 61 -182 l 182 -61 l 365 -61 z "},"ņ":{"ha":608,"x_min":0,"x_max":486,"o":"m 486 0 l 365 0 l 365 608 l 122 608 l 122 0 l 0 0 l 0 729 l 365 729 q 451 694 415 729 q 486 608 486 658 l 486 0 m 365 -61 l 243 -182 l 61 -182 l 182 -61 l 365 -61 z "},"Ŗ":{"ha":608,"x_min":0,"x_max":486,"o":"m 122 486 l 365 486 l 365 851 l 122 851 l 122 486 m 122 0 l 0 0 l 0 972 l 365 972 q 451 937 415 972 q 486 851 486 901 l 486 547 q 451 461 486 497 q 372 426 417 428 q 451 390 417 423 q 486 304 486 354 l 486 0 l 365 0 l 365 365 l 122 365 l 122 0 m 365 -61 l 243 -182 l 61 -182 l 182 -61 l 365 -61 z "},"ŗ":{"ha":608,"x_min":0,"x_max":486,"o":"m 486 426 l 365 426 l 365 608 l 122 608 l 122 0 l 0 0 l 0 729 l 365 729 q 451 694 415 729 q 486 608 486 658 l 486 426 m 365 -61 l 243 -182 l 61 -182 l 182 -61 l 365 -61 z "},"Ş":{"ha":608,"x_min":0,"x_max":486,"o":"m 0 122 l 0 243 l 122 243 l 122 122 l 365 122 l 365 426 l 122 426 q 36 461 71 426 q 0 547 0 497 l 0 851 q 36 937 0 901 q 122 972 71 972 l 365 972 q 451 937 415 972 q 486 851 486 901 l 486 729 l 365 729 l 365 851 l 122 851 l 122 547 l 365 547 q 451 512 415 547 q 486 426 486 476 l 486 122 q 451 36 486 71 q 365 0 415 0 l 122 0 q 36 36 71 0 q 0 122 0 71 m 365 -61 l 243 -182 l 61 -182 l 182 -61 l 365 -61 z "},"ş":{"ha":608,"x_min":0,"x_max":486,"o":"m 0 122 l 0 182 l 122 182 l 122 122 l 365 122 l 365 304 l 122 304 q 36 340 71 304 q 0 426 0 375 l 0 608 q 36 694 0 658 q 122 729 71 729 l 365 729 q 451 694 415 729 q 486 608 486 658 l 486 547 l 365 547 l 365 608 l 122 608 l 122 426 l 365 426 q 451 390 415 426 q 486 304 486 354 l 486 122 q 451 36 486 71 q 365 0 415 0 l 122 0 q 36 36 71 0 q 0 122 0 71 m 365 -61 l 243 -182 l 61 -182 l 182 -61 l 365 -61 z "},"Ţ":{"ha":608,"x_min":0,"x_max":486,"o":"m 304 851 l 304 0 l 182 0 l 182 851 l 0 851 l 0 972 l 486 972 l 486 851 l 304 851 m 304 -61 l 182 -182 l 0 -182 l 122 -61 l 304 -61 z "},"ţ":{"ha":486,"x_min":0,"x_max":365,"o":"m 122 972 l 243 972 l 243 729 l 365 729 l 365 608 l 243 608 l 243 122 l 365 122 l 365 0 l 243 0 q 157 36 193 0 q 122 122 122 71 l 122 608 l 0 608 l 0 729 l 122 729 l 122 972 m 365 -61 l 243 -182 l 61 -182 l 182 -61 l 365 -61 z "},"Ȩ":{"ha":608,"x_min":0,"x_max":486,"o":"m 486 122 l 486 0 l 0 0 l 0 972 l 486 972 l 486 851 l 122 851 l 122 547 l 426 547 l 426 426 l 122 426 l 122 122 l 486 122 m 365 -61 l 243 -182 l 61 -182 l 182 -61 l 365 -61 z "},"ȩ":{"ha":608,"x_min":0,"x_max":486,"o":"m 122 365 l 365 365 l 365 608 l 122 608 l 122 365 m 0 608 q 36 694 0 658 q 122 729 71 729 l 365 729 q 451 694 415 729 q 486 608 486 658 l 486 243 l 122 243 l 122 122 l 426 122 l 426 0 l 122 0 q 36 36 71 0 q 0 122 0 71 l 0 608 m 365 -61 l 243 -182 l 61 -182 l 182 -61 l 365 -61 z "},"Ḍ":{"ha":608,"x_min":0,"x_max":486,"o":"m 122 122 l 365 122 l 365 851 l 122 851 l 122 122 m 0 0 l 0 972 l 365 972 q 451 937 415 972 q 486 851 486 901 l 486 122 q 451 36 486 71 q 365 0 415 0 l 0 0 m 304 -182 l 182 -182 l 182 -61 l 304 -61 l 304 -182 z "},"ḍ":{"ha":608,"x_min":0,"x_max":486,"o":"m 486 0 l 122 0 q 36 36 71 0 q 0 122 0 71 l 0 608 q 36 694 0 658 q 122 729 71 729 l 365 729 l 365 972 l 486 972 l 486 0 m 365 122 l 365 608 l 122 608 l 122 122 l 365 122 m 304 -182 l 182 -182 l 182 -61 l 304 -61 l 304 -182 z "},"Ḥ":{"ha":608,"x_min":0,"x_max":486,"o":"m 122 426 l 122 0 l 0 0 l 0 972 l 122 972 l 122 547 l 365 547 l 365 972 l 486 972 l 486 0 l 365 0 l 365 426 l 122 426 m 304 -182 l 182 -182 l 182 -61 l 304 -61 l 304 -182 z "},"ḥ":{"ha":608,"x_min":0,"x_max":486,"o":"m 122 0 l 0 0 l 0 972 l 122 972 l 122 729 l 365 729 q 451 694 415 729 q 486 608 486 658 l 486 0 l 365 0 l 365 608 l 122 608 l 122 0 m 304 -182 l 182 -182 l 182 -61 l 304 -61 l 304 -182 z "},"Ḷ":{"ha":608,"x_min":0,"x_max":486,"o":"m 0 972 l 122 972 l 122 122 l 486 122 l 486 0 l 0 0 l 0 972 m 304 -182 l 182 -182 l 182 -61 l 304 -61 l 304 -182 z "},"ḷ":{"ha":365,"x_min":0,"x_max":243,"o":"m 0 972 l 122 972 l 122 122 l 243 122 l 243 0 l 122 0 q 36 36 71 0 q 0 122 0 71 l 0 972 m 182 -182 l 61 -182 l 61 -61 l 182 -61 l 182 -182 z "},"Ị":{"ha":243,"x_min":0,"x_max":122,"o":"m 122 0 l 0 0 l 0 972 l 122 972 l 122 0 m 122 -182 l 0 -182 l 0 -61 l 122 -61 l 122 -182 z "},"ị":{"ha":243,"x_min":0,"x_max":122,"o":"m 122 0 l 0 0 l 0 729 l 122 729 l 122 0 m 122 851 l 0 851 l 0 972 l 122 972 l 122 851 m 122 -182 l 0 -182 l 0 -61 l 122 -61 l 122 -182 z "},"Ọ":{"ha":608,"x_min":0,"x_max":486,"o":"m 122 122 l 365 122 l 365 851 l 122 851 l 122 122 m 0 122 l 0 851 q 36 937 0 901 q 122 972 71 972 l 365 972 q 451 937 415 972 q 486 851 486 901 l 486 122 q 451 36 486 71 q 365 0 415 0 l 122 0 q 36 36 71 0 q 0 122 0 71 m 304 -182 l 182 -182 l 182 -61 l 304 -61 l 304 -182 z "},"ọ":{"ha":608,"x_min":0,"x_max":486,"o":"m 122 122 l 365 122 l 365 608 l 122 608 l 122 122 m 0 122 l 0 608 q 36 694 0 658 q 122 729 71 729 l 365 729 q 451 694 415 729 q 486 608 486 658 l 486 122 q 451 36 486 71 q 365 0 415 0 l 122 0 q 36 36 71 0 q 0 122 0 71 m 304 -182 l 182 -182 l 182 -61 l 304 -61 l 304 -182 z "},"Ụ":{"ha":608,"x_min":0,"x_max":486,"o":"m 0 972 l 122 972 l 122 122 l 365 122 l 365 972 l 486 972 l 486 122 q 451 36 486 71 q 365 0 415 0 l 122 0 q 36 36 71 0 q 0 122 0 71 l 0 972 m 304 -182 l 182 -182 l 182 -61 l 304 -61 l 304 -182 z "},"ụ":{"ha":608,"x_min":0,"x_max":486,"o":"m 0 729 l 122 729 l 122 122 l 365 122 l 365 729 l 486 729 l 486 122 q 451 36 486 71 q 365 0 415 0 l 122 0 q 36 36 71 0 q 0 122 0 71 l 0 729 m 304 -182 l 182 -182 l 182 -61 l 304 -61 l 304 -182 z "},"Ṣ":{"ha":608,"x_min":0,"x_max":486,"o":"m 0 122 l 0 243 l 122 243 l 122 122 l 365 122 l 365 426 l 122 426 q 36 461 71 426 q 0 547 0 497 l 0 851 q 36 937 0 901 q 122 972 71 972 l 365 972 q 451 937 415 972 q 486 851 486 901 l 486 729 l 365 729 l 365 851 l 122 851 l 122 547 l 365 547 q 451 512 415 547 q 486 426 486 476 l 486 122 q 451 36 486 71 q 365 0 415 0 l 122 0 q 36 36 71 0 q 0 122 0 71 m 304 -182 l 182 -182 l 182 -61 l 304 -61 l 304 -182 z "},"ṣ":{"ha":608,"x_min":0,"x_max":486,"o":"m 0 122 l 0 182 l 122 182 l 122 122 l 365 122 l 365 304 l 122 304 q 36 340 71 304 q 0 426 0 375 l 0 608 q 36 694 0 658 q 122 729 71 729 l 365 729 q 451 694 415 729 q 486 608 486 658 l 486 547 l 365 547 l 365 608 l 122 608 l 122 426 l 365 426 q 451 390 415 426 q 486 304 486 354 l 486 122 q 451 36 486 71 q 365 0 415 0 l 122 0 q 36 36 71 0 q 0 122 0 71 m 304 -182 l 182 -182 l 182 -61 l 304 -61 l 304 -182 z "},"Ṭ":{"ha":608,"x_min":0,"x_max":486,"o":"m 304 851 l 304 0 l 182 0 l 182 851 l 0 851 l 0 972 l 486 972 l 486 851 l 304 851 m 304 -182 l 182 -182 l 182 -61 l 304 -61 l 304 -182 z "},"ṭ":{"ha":486,"x_min":0,"x_max":365,"o":"m 122 972 l 243 972 l 243 729 l 365 729 l 365 608 l 243 608 l 243 122 l 365 122 l 365 0 l 243 0 q 157 36 193 0 q 122 122 122 71 l 122 608 l 0 608 l 0 729 l 122 729 l 122 972 m 304 -182 l 182 -182 l 182 -61 l 304 -61 l 304 -182 z "},"Ẓ":{"ha":608,"x_min":0,"x_max":486,"o":"m 0 851 l 0 972 l 486 972 l 486 547 q 451 461 486 497 q 365 426 415 426 l 122 426 l 122 122 l 486 122 l 486 0 l 0 0 l 0 426 q 36 512 0 476 q 122 547 71 547 l 365 547 l 365 851 l 0 851 m 304 -182 l 182 -182 l 182 -61 l 304 -61 l 304 -182 z "},"ẓ":{"ha":608,"x_min":0,"x_max":486,"o":"m 0 608 l 0 729 l 486 729 l 486 426 q 451 340 486 375 q 365 304 415 304 l 122 304 l 122 122 l 486 122 l 486 0 l 0 0 l 0 304 q 36 390 0 354 q 122 426 71 426 l 365 426 l 365 608 l 0 608 m 304 -182 l 182 -182 l 182 -61 l 304 -61 l 304 -182 z "},"˘":{"ha":486,"x_min":61,"x_max":426,"o":"m 243 1033 q 114 1069 168 1033 q 61 1155 61 1105 l 426 1155 q 372 1069 426 1105 q 243 1033 319 1033 z "},"Ă":{"ha":608,"x_min":0,"x_max":486,"o":"m 122 365 l 365 365 l 365 851 l 122 851 l 122 365 m 122 0 l 0 0 l 0 851 q 36 937 0 901 q 122 972 71 972 l 365 972 q 451 937 415 972 q 486 851 486 901 l 486 0 l 365 0 l 365 243 l 122 243 l 122 0 m 243 1033 q 114 1069 168 1033 q 61 1155 61 1105 l 426 1155 q 372 1069 426 1105 q 243 1033 319 1033 z "},"ă":{"ha":608,"x_min":0,"x_max":486,"o":"m 122 122 l 365 122 l 365 365 l 122 365 l 122 122 m 0 122 l 0 365 q 36 451 0 415 q 122 486 71 486 l 365 486 l 365 608 l 0 608 q 36 694 0 658 q 122 729 71 729 l 365 729 q 451 694 415 729 q 486 608 486 658 l 486 0 l 122 0 q 36 36 71 0 q 0 122 0 71 m 243 851 q 114 887 168 851 q 61 972 61 922 l 426 972 q 372 887 426 922 q 243 851 319 851 z "},"Ĕ":{"ha":608,"x_min":0,"x_max":486,"o":"m 486 122 l 486 0 l 0 0 l 0 972 l 486 972 l 486 851 l 122 851 l 122 547 l 426 547 l 426 426 l 122 426 l 122 122 l 486 122 m 243 1033 q 114 1069 168 1033 q 61 1155 61 1105 l 426 1155 q 372 1069 426 1105 q 243 1033 319 1033 z "},"ĕ":{"ha":608,"x_min":0,"x_max":486,"o":"m 122 365 l 365 365 l 365 608 l 122 608 l 122 365 m 0 608 q 36 694 0 658 q 122 729 71 729 l 365 729 q 451 694 415 729 q 486 608 486 658 l 486 243 l 122 243 l 122 122 l 426 122 l 426 0 l 122 0 q 36 36 71 0 q 0 122 0 71 l 0 608 m 243 851 q 114 887 168 851 q 61 972 61 922 l 426 972 q 372 887 426 922 q 243 851 319 851 z "},"Ğ":{"ha":608,"x_min":0,"x_max":486,"o":"m 486 851 l 486 729 l 365 729 l 365 851 l 122 851 l 122 122 l 365 122 l 365 426 l 243 426 l 243 547 l 486 547 l 486 122 q 451 36 486 71 q 365 0 415 0 l 122 0 q 36 36 71 0 q 0 122 0 71 l 0 851 q 36 937 0 901 q 122 972 71 972 l 365 972 q 451 937 415 972 q 486 851 486 901 m 243 1033 q 114 1069 168 1033 q 61 1155 61 1105 l 426 1155 q 372 1069 426 1105 q 243 1033 319 1033 z "},"ğ":{"ha":608,"x_min":0,"x_max":486,"o":"m 365 608 l 122 608 l 122 122 l 365 122 l 365 608 m 486 729 l 486 -61 q 451 -147 486 -111 q 365 -182 415 -182 l 61 -182 l 61 -61 l 365 -61 l 365 0 l 122 0 q 36 36 71 0 q 0 122 0 71 l 0 608 q 36 694 0 658 q 122 729 71 729 l 486 729 m 243 851 q 114 887 168 851 q 61 972 61 922 l 426 972 q 372 887 426 922 q 243 851 319 851 z "},"Ĭ":{"ha":365,"x_min":0,"x_max":365,"o":"m 243 0 l 122 0 l 122 972 l 243 972 l 243 0 m 182 1033 q 53 1069 107 1033 q 0 1155 0 1105 l 365 1155 q 311 1069 365 1105 q 182 1033 258 1033 z "},"ĭ":{"ha":365,"x_min":0,"x_max":365,"o":"m 243 0 l 122 0 l 122 729 l 243 729 l 243 0 m 182 851 q 54 887 107 851 q 0 972 0 922 l 365 972 q 311 887 365 922 q 182 851 258 851 z "},"Ŏ":{"ha":608,"x_min":0,"x_max":486,"o":"m 122 122 l 365 122 l 365 851 l 122 851 l 122 122 m 0 122 l 0 851 q 36 937 0 901 q 122 972 71 972 l 365 972 q 451 937 415 972 q 486 851 486 901 l 486 122 q 451 36 486 71 q 365 0 415 0 l 122 0 q 36 36 71 0 q 0 122 0 71 m 243 1033 q 114 1069 168 1033 q 61 1155 61 1105 l 426 1155 q 372 1069 426 1105 q 243 1033 319 1033 z "},"ŏ":{"ha":608,"x_min":0,"x_max":486,"o":"m 122 122 l 365 122 l 365 608 l 122 608 l 122 122 m 0 122 l 0 608 q 36 694 0 658 q 122 729 71 729 l 365 729 q 451 694 415 729 q 486 608 486 658 l 486 122 q 451 36 486 71 q 365 0 415 0 l 122 0 q 36 36 71 0 q 0 122 0 71 m 243 851 q 114 887 168 851 q 61 972 61 922 l 426 972 q 372 887 426 922 q 243 851 319 851 z "},"Ŭ":{"ha":608,"x_min":0,"x_max":486,"o":"m 0 972 l 122 972 l 122 122 l 365 122 l 365 972 l 486 972 l 486 122 q 451 36 486 71 q 365 0 415 0 l 122 0 q 36 36 71 0 q 0 122 0 71 l 0 972 m 243 1033 q 114 1069 168 1033 q 61 1155 61 1105 l 426 1155 q 372 1069 426 1105 q 243 1033 319 1033 z "},"ŭ":{"ha":608,"x_min":0,"x_max":486,"o":"m 0 729 l 122 729 l 122 122 l 365 122 l 365 729 l 486 729 l 486 122 q 451 36 486 71 q 365 0 415 0 l 122 0 q 36 36 71 0 q 0 122 0 71 l 0 729 m 243 851 q 114 887 168 851 q 61 972 61 922 l 426 972 q 372 887 426 922 q 243 851 319 851 z "},"˜":{"ha":486,"x_min":61,"x_max":426,"o":"m 152 1094 l 152 1003 l 61 1003 l 61 1094 q 87 1158 61 1132 q 152 1185 114 1185 l 198 1185 q 262 1158 235 1185 q 289 1094 289 1132 l 334 1094 l 334 1185 l 426 1185 l 426 1094 q 399 1030 426 1056 q 334 1003 372 1003 l 289 1003 q 224 1030 251 1003 q 198 1094 198 1056 l 152 1094 z "},"Ñ":{"ha":608,"x_min":0,"x_max":486,"o":"m 486 0 l 365 0 l 365 851 l 122 851 l 122 0 l 0 0 l 0 972 l 365 972 q 451 937 415 972 q 486 851 486 901 l 486 0 m 152 1094 l 152 1003 l 61 1003 l 61 1094 q 87 1158 61 1132 q 152 1185 114 1185 l 198 1185 q 262 1158 235 1185 q 289 1094 289 1132 l 334 1094 l 334 1185 l 426 1185 l 426 1094 q 399 1030 426 1056 q 334 1003 372 1003 l 289 1003 q 224 1030 251 1003 q 198 1094 198 1056 l 152 1094 z "},"ñ":{"ha":608,"x_min":0,"x_max":486,"o":"m 486 0 l 365 0 l 365 608 l 122 608 l 122 0 l 0 0 l 0 729 l 365 729 q 451 694 415 729 q 486 608 486 658 l 486 0 m 152 881 l 152 790 l 61 790 l 61 881 q 87 946 61 919 q 152 972 114 972 l 198 972 q 262 946 235 972 q 289 881 289 919 l 334 881 l 334 972 l 426 972 l 426 881 q 399 817 426 844 q 334 790 372 790 l 289 790 q 224 817 251 790 q 198 881 198 844 l 152 881 z "},"Õ":{"ha":608,"x_min":0,"x_max":486,"o":"m 122 122 l 365 122 l 365 851 l 122 851 l 122 122 m 0 122 l 0 851 q 36 937 0 901 q 122 972 71 972 l 365 972 q 451 937 415 972 q 486 851 486 901 l 486 122 q 451 36 486 71 q 365 0 415 0 l 122 0 q 36 36 71 0 q 0 122 0 71 m 152 1094 l 152 1003 l 61 1003 l 61 1094 q 87 1158 61 1132 q 152 1185 114 1185 l 198 1185 q 262 1158 235 1185 q 289 1094 289 1132 l 334 1094 l 334 1185 l 426 1185 l 426 1094 q 399 1030 426 1056 q 334 1003 372 1003 l 289 1003 q 224 1030 251 1003 q 198 1094 198 1056 l 152 1094 z "},"õ":{"ha":608,"x_min":0,"x_max":486,"o":"m 122 122 l 365 122 l 365 608 l 122 608 l 122 122 m 0 122 l 0 608 q 36 694 0 658 q 122 729 71 729 l 365 729 q 451 694 415 729 q 486 608 486 658 l 486 122 q 451 36 486 71 q 365 0 415 0 l 122 0 q 36 36 71 0 q 0 122 0 71 m 152 881 l 152 790 l 61 790 l 61 881 q 87 946 61 919 q 152 972 114 972 l 198 972 q 262 946 235 972 q 289 881 289 919 l 334 881 l 334 972 l 426 972 l 426 881 q 399 817 426 844 q 334 790 372 790 l 289 790 q 224 817 251 790 q 198 881 198 844 l 152 881 z "},"Ã":{"ha":608,"x_min":0,"x_max":486,"o":"m 122 365 l 365 365 l 365 851 l 122 851 l 122 365 m 122 0 l 0 0 l 0 851 q 36 937 0 901 q 122 972 71 972 l 365 972 q 451 937 415 972 q 486 851 486 901 l 486 0 l 365 0 l 365 243 l 122 243 l 122 0 m 152 1094 l 152 1003 l 61 1003 l 61 1094 q 87 1158 61 1132 q 152 1185 114 1185 l 198 1185 q 262 1158 235 1185 q 289 1094 289 1132 l 334 1094 l 334 1185 l 426 1185 l 426 1094 q 399 1030 426 1056 q 334 1003 372 1003 l 289 1003 q 224 1030 251 1003 q 198 1094 198 1056 l 152 1094 z "},"ã":{"ha":608,"x_min":0,"x_max":486,"o":"m 122 122 l 365 122 l 365 365 l 122 365 l 122 122 m 0 122 l 0 365 q 36 451 0 415 q 122 486 71 486 l 365 486 l 365 608 l 0 608 q 36 694 0 658 q 122 729 71 729 l 365 729 q 451 694 415 729 q 486 608 486 658 l 486 0 l 122 0 q 36 36 71 0 q 0 122 0 71 m 152 881 l 152 790 l 61 790 l 61 881 q 87 946 61 919 q 152 972 114 972 l 198 972 q 262 946 235 972 q 289 881 289 919 l 334 881 l 334 972 l 426 972 l 426 881 q 399 817 426 844 q 334 790 372 790 l 289 790 q 224 817 251 790 q 198 881 198 844 l 152 881 z "},"Ĩ":{"ha":365,"x_min":0,"x_max":365,"o":"m 243 0 l 122 0 l 122 972 l 243 972 l 243 0 m 91 1094 l 91 1003 l 0 1003 l 0 1094 q 27 1158 0 1132 q 91 1185 53 1185 l 137 1185 q 201 1158 175 1185 q 228 1094 228 1132 l 273 1094 l 273 1185 l 365 1185 l 365 1094 q 338 1030 365 1056 q 273 1003 311 1003 l 228 1003 q 164 1030 190 1003 q 137 1094 137 1056 l 91 1094 z "},"ĩ":{"ha":365,"x_min":0,"x_max":365,"o":"m 243 0 l 122 0 l 122 729 l 243 729 l 243 0 m 91 881 l 91 790 l 0 790 l 0 881 q 27 946 0 919 q 91 972 53 972 l 137 972 q 201 946 175 972 q 228 881 228 919 l 273 881 l 273 972 l 365 972 l 365 881 q 338 817 365 844 q 273 790 311 790 l 228 790 q 164 817 190 790 q 137 881 137 844 l 91 881 z "},"Ũ":{"ha":608,"x_min":0,"x_max":486,"o":"m 0 972 l 122 972 l 122 122 l 365 122 l 365 972 l 486 972 l 486 122 q 451 36 486 71 q 365 0 415 0 l 122 0 q 36 36 71 0 q 0 122 0 71 l 0 972 m 152 1094 l 152 1003 l 61 1003 l 61 1094 q 87 1158 61 1132 q 152 1185 114 1185 l 198 1185 q 262 1158 235 1185 q 289 1094 289 1132 l 334 1094 l 334 1185 l 426 1185 l 426 1094 q 399 1030 426 1056 q 334 1003 372 1003 l 289 1003 q 224 1030 251 1003 q 198 1094 198 1056 l 152 1094 z "},"ũ":{"ha":608,"x_min":0,"x_max":486,"o":"m 0 729 l 122 729 l 122 122 l 365 122 l 365 729 l 486 729 l 486 122 q 451 36 486 71 q 365 0 415 0 l 122 0 q 36 36 71 0 q 0 122 0 71 l 0 729 m 152 881 l 152 790 l 61 790 l 61 881 q 87 946 61 919 q 152 972 114 972 l 198 972 q 262 946 235 972 q 289 881 289 919 l 334 881 l 334 972 l 426 972 l 426 881 q 399 817 426 844 q 334 790 372 790 l 289 790 q 224 817 251 790 q 198 881 198 844 l 152 881 z "},"Ṽ":{"ha":608,"x_min":0,"x_max":486,"o":"m 0 972 l 122 972 l 122 122 l 243 122 q 329 157 293 122 q 365 243 365 193 l 365 972 l 486 972 l 486 243 q 415 71 486 142 q 243 0 344 0 l 0 0 l 0 972 m 152 1094 l 152 1003 l 61 1003 l 61 1094 q 87 1158 61 1132 q 152 1185 114 1185 l 198 1185 q 262 1158 235 1185 q 289 1094 289 1132 l 334 1094 l 334 1185 l 426 1185 l 426 1094 q 399 1030 426 1056 q 334 1003 372 1003 l 289 1003 q 224 1030 251 1003 q 198 1094 198 1056 l 152 1094 z "},"ṽ":{"ha":608,"x_min":0,"x_max":486,"o":"m 0 729 l 122 729 l 122 122 l 243 122 q 329 157 293 122 q 365 243 365 193 l 365 729 l 486 729 l 486 243 q 415 71 486 142 q 243 0 344 0 l 0 0 l 0 729 m 152 881 l 152 790 l 61 790 l 61 881 q 87 946 61 919 q 152 972 114 972 l 198 972 q 262 946 235 972 q 289 881 289 919 l 334 881 l 334 972 l 426 972 l 426 881 q 399 817 426 844 q 334 790 372 790 l 289 790 q 224 817 251 790 q 198 881 198 844 l 152 881 z "},"Ẽ":{"ha":608,"x_min":0,"x_max":486,"o":"m 486 122 l 486 0 l 0 0 l 0 972 l 486 972 l 486 851 l 122 851 l 122 547 l 426 547 l 426 426 l 122 426 l 122 122 l 486 122 m 152 1094 l 152 1003 l 61 1003 l 61 1094 q 87 1158 61 1132 q 152 1185 114 1185 l 198 1185 q 262 1158 235 1185 q 289 1094 289 1132 l 334 1094 l 334 1185 l 426 1185 l 426 1094 q 399 1030 426 1056 q 334 1003 372 1003 l 289 1003 q 224 1030 251 1003 q 198 1094 198 1056 l 152 1094 z "},"ẽ":{"ha":608,"x_min":0,"x_max":486,"o":"m 122 365 l 365 365 l 365 608 l 122 608 l 122 365 m 0 608 q 36 694 0 658 q 122 729 71 729 l 365 729 q 451 694 415 729 q 486 608 486 658 l 486 243 l 122 243 l 122 122 l 426 122 l 426 0 l 122 0 q 36 36 71 0 q 0 122 0 71 l 0 608 m 152 881 l 152 790 l 61 790 l 61 881 q 87 946 61 919 q 152 972 114 972 l 198 972 q 262 946 235 972 q 289 881 289 919 l 334 881 l 334 972 l 426 972 l 426 881 q 399 817 426 844 q 334 790 372 790 l 289 790 q 224 817 251 790 q 198 881 198 844 l 152 881 z "},"Ỹ":{"ha":608,"x_min":0,"x_max":486,"o":"m 0 972 l 122 972 l 122 486 l 365 486 l 365 972 l 486 972 l 486 486 q 451 400 486 436 q 365 365 415 365 l 304 365 l 304 0 l 182 0 l 182 365 l 122 365 q 36 400 71 365 q 0 486 0 436 l 0 972 m 152 1094 l 152 1003 l 61 1003 l 61 1094 q 87 1158 61 1132 q 152 1185 114 1185 l 198 1185 q 262 1158 235 1185 q 289 1094 289 1132 l 334 1094 l 334 1185 l 426 1185 l 426 1094 q 399 1030 426 1056 q 334 1003 372 1003 l 289 1003 q 224 1030 251 1003 q 198 1094 198 1056 l 152 1094 z "},"ỹ":{"ha":608,"x_min":0,"x_max":486,"o":"m 365 729 l 486 729 l 486 122 q 451 36 486 71 q 365 0 415 0 l 61 0 l 61 122 l 365 122 l 365 243 l 122 243 q 36 279 71 243 q 0 365 0 314 l 0 729 l 122 729 l 122 365 l 365 365 l 365 729 m 152 881 l 152 790 l 61 790 l 61 881 q 87 946 61 919 q 152 972 114 972 l 198 972 q 262 946 235 972 q 289 881 289 919 l 334 881 l 334 972 l 426 972 l 426 881 q 399 817 426 844 q 334 790 372 790 l 289 790 q 224 817 251 790 q 198 881 198 844 l 152 881 z "},"ˍ":{"ha":486,"x_min":91,"x_max":395,"o":"m 91 -182 l 91 -61 l 395 -61 l 395 -182 l 91 -182 z "},"Ḻ":{"ha":608,"x_min":0,"x_max":486,"o":"m 0 972 l 122 972 l 122 122 l 486 122 l 486 0 l 0 0 l 0 972 m 91 -182 l 91 -61 l 395 -61 l 395 -182 l 91 -182 z "},"ḻ":{"ha":365,"x_min":-30,"x_max":273,"o":"m 0 972 l 122 972 l 122 122 l 243 122 l 243 0 l 122 0 q 36 36 71 0 q 0 122 0 71 l 0 972 m -30 -182 l -30 -61 l 273 -61 l 273 -182 l -30 -182 z "},"Ṉ":{"ha":608,"x_min":0,"x_max":486,"o":"m 486 0 l 365 0 l 365 851 l 122 851 l 122 0 l 0 0 l 0 972 l 365 972 q 451 937 415 972 q 486 851 486 901 l 486 0 m 91 -182 l 91 -61 l 395 -61 l 395 -182 l 91 -182 z "},"ṉ":{"ha":608,"x_min":0,"x_max":486,"o":"m 486 0 l 365 0 l 365 608 l 122 608 l 122 0 l 0 0 l 0 729 l 365 729 q 451 694 415 729 q 486 608 486 658 l 486 0 m 91 -182 l 91 -61 l 395 -61 l 395 -182 l 91 -182 z "},"Ș":{"ha":608,"x_min":0,"x_max":486,"o":"m 0 122 l 0 243 l 122 243 l 122 122 l 365 122 l 365 426 l 122 426 q 36 461 71 426 q 0 547 0 497 l 0 851 q 36 937 0 901 q 122 972 71 972 l 365 972 q 451 937 415 972 q 486 851 486 901 l 486 729 l 365 729 l 365 851 l 122 851 l 122 547 l 365 547 q 451 512 415 547 q 486 426 486 476 l 486 122 q 451 36 486 71 q 365 0 415 0 l 122 0 q 36 36 71 0 q 0 122 0 71 m 365 -61 l 243 -182 l 61 -182 l 182 -61 l 365 -61 z "},"ș":{"ha":608,"x_min":0,"x_max":486,"o":"m 0 122 l 0 182 l 122 182 l 122 122 l 365 122 l 365 304 l 122 304 q 36 340 71 304 q 0 426 0 375 l 0 608 q 36 694 0 658 q 122 729 71 729 l 365 729 q 451 694 415 729 q 486 608 486 658 l 486 547 l 365 547 l 365 608 l 122 608 l 122 426 l 365 426 q 451 390 415 426 q 486 304 486 354 l 486 122 q 451 36 486 71 q 365 0 415 0 l 122 0 q 36 36 71 0 q 0 122 0 71 m 365 -61 l 243 -182 l 61 -182 l 182 -61 l 365 -61 z "},"Ț":{"ha":608,"x_min":0,"x_max":486,"o":"m 304 851 l 304 0 l 182 0 l 182 851 l 0 851 l 0 972 l 486 972 l 486 851 l 304 851 m 304 -61 l 182 -182 l 0 -182 l 122 -61 l 304 -61 z "},"ț":{"ha":486,"x_min":0,"x_max":365,"o":"m 122 972 l 243 972 l 243 729 l 365 729 l 365 608 l 243 608 l 243 122 l 365 122 l 365 0 l 243 0 q 157 36 193 0 q 122 122 122 71 l 122 608 l 0 608 l 0 729 l 122 729 l 122 972 m 365 -61 l 243 -182 l 61 -182 l 182 -61 l 365 -61 z "},"ǀ":{"ha":243,"x_min":0,"x_max":122,"o":"m 122 0 l 0 0 l 0 972 l 122 972 l 122 0 z "},"ǁ":{"ha":486,"x_min":0,"x_max":365,"o":"m 122 0 l 0 0 l 0 972 l 122 972 l 122 0 m 365 0 l 243 0 l 243 972 l 365 972 l 365 0 z "},"ǂ":{"ha":608,"x_min":0,"x_max":486,"o":"m 182 608 l 0 608 l 0 729 l 182 729 l 182 972 l 304 972 l 304 729 l 486 729 l 486 608 l 304 608 l 304 365 l 486 365 l 486 243 l 304 243 l 304 0 l 182 0 l 182 243 l 0 243 l 0 365 l 182 365 l 182 608 z "},"ǃ":{"ha":243,"x_min":0,"x_max":122,"o":"m 122 0 l 0 0 l 0 122 l 122 122 l 122 0 m 122 243 l 0 243 l 0 972 l 122 972 l 122 243 z "},"«":{"ha":608,"x_min":0,"x_max":486,"o":"m 243 0 q 71 71 142 0 q 0 243 0 142 q 71 415 0 344 q 243 486 142 486 l 243 365 q 157 329 193 365 q 122 243 122 293 q 157 157 122 193 q 243 122 193 122 l 243 0 m 486 0 q 314 71 386 0 q 243 243 243 142 q 314 415 243 344 q 486 486 386 486 l 486 365 q 400 329 436 365 q 365 243 365 293 q 400 157 365 193 q 486 122 436 122 l 486 0 z "},"»":{"ha":608,"x_min":0,"x_max":486,"o":"m 243 0 l 243 122 q 329 157 293 122 q 365 243 365 193 q 329 329 365 293 q 243 365 293 365 l 243 486 q 415 415 344 486 q 486 243 486 344 q 415 71 486 142 q 243 0 344 0 m 0 0 l 0 122 q 86 157 50 122 q 122 243 122 193 q 86 329 122 293 q 0 365 50 365 l 0 486 q 172 415 101 486 q 243 243 243 344 q 172 71 243 142 q 0 0 101 0 z "},"‹":{"ha":365,"x_min":0,"x_max":243,"o":"m 243 0 q 71 71 142 0 q 0 243 0 142 q 71 415 0 344 q 243 486 142 486 l 243 365 q 157 329 193 365 q 122 243 122 293 q 157 157 122 193 q 243 122 193 122 l 243 0 z "},"›":{"ha":365,"x_min":0,"x_max":243,"o":"m 0 0 l 0 122 q 86 157 50 122 q 122 243 122 193 q 86 329 122 293 q 0 365 50 365 l 0 486 q 172 415 101 486 q 243 243 243 344 q 172 71 243 142 q 0 0 101 0 z "},"ˋ":{"ha":486,"x_min":0,"x_max":304,"o":"m 202 1033 l 0 1155 l 202 1155 l 304 1033 l 202 1033 z "},"À":{"ha":608,"x_min":0,"x_max":486,"o":"m 122 365 l 365 365 l 365 851 l 122 851 l 122 365 m 122 0 l 0 0 l 0 851 q 36 937 0 901 q 122 972 71 972 l 365 972 q 451 937 415 972 q 486 851 486 901 l 486 0 l 365 0 l 365 243 l 122 243 l 122 0 m 202 1033 l 0 1155 l 202 1155 l 304 1033 l 202 1033 z "},"à":{"ha":608,"x_min":0,"x_max":486,"o":"m 122 122 l 365 122 l 365 365 l 122 365 l 122 122 m 0 122 l 0 365 q 36 451 0 415 q 122 486 71 486 l 365 486 l 365 608 l 0 608 q 36 694 0 658 q 122 729 71 729 l 365 729 q 451 694 415 729 q 486 608 486 658 l 486 0 l 122 0 q 36 36 71 0 q 0 122 0 71 m 202 851 l 0 972 l 202 972 l 304 851 l 202 851 z "},"È":{"ha":608,"x_min":0,"x_max":486,"o":"m 486 122 l 486 0 l 0 0 l 0 972 l 486 972 l 486 851 l 122 851 l 122 547 l 426 547 l 426 426 l 122 426 l 122 122 l 486 122 m 202 1033 l 0 1155 l 202 1155 l 304 1033 l 202 1033 z "},"è":{"ha":608,"x_min":0,"x_max":486,"o":"m 122 365 l 365 365 l 365 608 l 122 608 l 122 365 m 0 608 q 36 694 0 658 q 122 729 71 729 l 365 729 q 451 694 415 729 q 486 608 486 658 l 486 243 l 122 243 l 122 122 l 426 122 l 426 0 l 122 0 q 36 36 71 0 q 0 122 0 71 l 0 608 m 202 851 l 0 972 l 202 972 l 304 851 l 202 851 z "},"Ì":{"ha":365,"x_min":-61,"x_max":243,"o":"m 243 0 l 122 0 l 122 972 l 243 972 l 243 0 m 142 1033 l -61 1155 l 142 1155 l 243 1033 l 142 1033 z "},"ì":{"ha":365,"x_min":-61,"x_max":243,"o":"m 243 0 l 122 0 l 122 729 l 243 729 l 243 0 m 142 851 l -61 972 l 142 972 l 243 851 l 142 851 z "},"Ò":{"ha":608,"x_min":0,"x_max":486,"o":"m 122 122 l 365 122 l 365 851 l 122 851 l 122 122 m 0 122 l 0 851 q 36 937 0 901 q 122 972 71 972 l 365 972 q 451 937 415 972 q 486 851 486 901 l 486 122 q 451 36 486 71 q 365 0 415 0 l 122 0 q 36 36 71 0 q 0 122 0 71 m 202 1033 l 0 1155 l 202 1155 l 304 1033 l 202 1033 z "},"ò":{"ha":608,"x_min":0,"x_max":486,"o":"m 122 122 l 365 122 l 365 608 l 122 608 l 122 122 m 0 122 l 0 608 q 36 694 0 658 q 122 729 71 729 l 365 729 q 451 694 415 729 q 486 608 486 658 l 486 122 q 451 36 486 71 q 365 0 415 0 l 122 0 q 36 36 71 0 q 0 122 0 71 m 202 851 l 0 972 l 202 972 l 304 851 l 202 851 z "},"Ù":{"ha":608,"x_min":0,"x_max":486,"o":"m 0 972 l 122 972 l 122 122 l 365 122 l 365 972 l 486 972 l 486 122 q 451 36 486 71 q 365 0 415 0 l 122 0 q 36 36 71 0 q 0 122 0 71 l 0 972 m 202 1033 l 0 1155 l 202 1155 l 304 1033 l 202 1033 z "},"ù":{"ha":608,"x_min":0,"x_max":486,"o":"m 0 729 l 122 729 l 122 122 l 365 122 l 365 729 l 486 729 l 486 122 q 451 36 486 71 q 365 0 415 0 l 122 0 q 36 36 71 0 q 0 122 0 71 l 0 729 m 202 851 l 0 972 l 202 972 l 304 851 l 202 851 z "},"Ǹ":{"ha":608,"x_min":0,"x_max":486,"o":"m 486 0 l 365 0 l 365 851 l 122 851 l 122 0 l 0 0 l 0 972 l 365 972 q 451 937 415 972 q 486 851 486 901 l 486 0 m 202 1033 l 0 1155 l 202 1155 l 304 1033 l 202 1033 z "},"ǹ":{"ha":608,"x_min":0,"x_max":486,"o":"m 486 0 l 365 0 l 365 608 l 122 608 l 122 0 l 0 0 l 0 729 l 365 729 q 451 694 415 729 q 486 608 486 658 l 486 0 m 202 851 l 0 972 l 202 972 l 304 851 l 202 851 z "},"Ỳ":{"ha":608,"x_min":0,"x_max":486,"o":"m 0 972 l 122 972 l 122 486 l 365 486 l 365 972 l 486 972 l 486 486 q 451 400 486 436 q 365 365 415 365 l 304 365 l 304 0 l 182 0 l 182 365 l 122 365 q 36 400 71 365 q 0 486 0 436 l 0 972 m 202 1033 l 0 1155 l 202 1155 l 304 1033 l 202 1033 z "},"ỳ":{"ha":608,"x_min":0,"x_max":486,"o":"m 365 729 l 486 729 l 486 122 q 451 36 486 71 q 365 0 415 0 l 61 0 l 61 122 l 365 122 l 365 243 l 122 243 q 36 279 71 243 q 0 365 0 314 l 0 729 l 122 729 l 122 365 l 365 365 l 365 729 m 202 851 l 0 972 l 202 972 l 304 851 l 202 851 z "},"´":{"ha":486,"x_min":182,"x_max":486,"o":"m 284 1033 l 182 1033 l 284 1155 l 486 1155 l 284 1033 z "},"Á":{"ha":608,"x_min":0,"x_max":486,"o":"m 122 365 l 365 365 l 365 851 l 122 851 l 122 365 m 122 0 l 0 0 l 0 851 q 36 937 0 901 q 122 972 71 972 l 365 972 q 451 937 415 972 q 486 851 486 901 l 486 0 l 365 0 l 365 243 l 122 243 l 122 0 m 284 1033 l 182 1033 l 284 1155 l 486 1155 l 284 1033 z "},"á":{"ha":608,"x_min":0,"x_max":486,"o":"m 122 122 l 365 122 l 365 365 l 122 365 l 122 122 m 0 122 l 0 365 q 36 451 0 415 q 122 486 71 486 l 365 486 l 365 608 l 0 608 q 36 694 0 658 q 122 729 71 729 l 365 729 q 451 694 415 729 q 486 608 486 658 l 486 0 l 122 0 q 36 36 71 0 q 0 122 0 71 m 284 851 l 182 851 l 284 972 l 486 972 l 284 851 z "},"É":{"ha":608,"x_min":0,"x_max":486,"o":"m 486 122 l 486 0 l 0 0 l 0 972 l 486 972 l 486 851 l 122 851 l 122 547 l 426 547 l 426 426 l 122 426 l 122 122 l 486 122 m 284 1033 l 182 1033 l 284 1155 l 486 1155 l 284 1033 z "},"é":{"ha":608,"x_min":0,"x_max":486,"o":"m 122 365 l 365 365 l 365 608 l 122 608 l 122 365 m 0 608 q 36 694 0 658 q 122 729 71 729 l 365 729 q 451 694 415 729 q 486 608 486 658 l 486 243 l 122 243 l 122 122 l 426 122 l 426 0 l 122 0 q 36 36 71 0 q 0 122 0 71 l 0 608 m 284 851 l 182 851 l 284 972 l 486 972 l 284 851 z "},"Í":{"ha":365,"x_min":122,"x_max":425,"o":"m 243 0 l 122 0 l 122 972 l 243 972 l 243 0 m 223 1033 l 122 1033 l 223 1155 l 425 1155 l 223 1033 z "},"í":{"ha":365,"x_min":122,"x_max":425,"o":"m 243 0 l 122 0 l 122 729 l 243 729 l 243 0 m 223 851 l 122 851 l 223 972 l 425 972 l 223 851 z "},"Ó":{"ha":608,"x_min":0,"x_max":486,"o":"m 122 122 l 365 122 l 365 851 l 122 851 l 122 122 m 0 122 l 0 851 q 36 937 0 901 q 122 972 71 972 l 365 972 q 451 937 415 972 q 486 851 486 901 l 486 122 q 451 36 486 71 q 365 0 415 0 l 122 0 q 36 36 71 0 q 0 122 0 71 m 284 1033 l 182 1033 l 284 1155 l 486 1155 l 284 1033 z "},"ó":{"ha":608,"x_min":0,"x_max":486,"o":"m 122 122 l 365 122 l 365 608 l 122 608 l 122 122 m 0 122 l 0 608 q 36 694 0 658 q 122 729 71 729 l 365 729 q 451 694 415 729 q 486 608 486 658 l 486 122 q 451 36 486 71 q 365 0 415 0 l 122 0 q 36 36 71 0 q 0 122 0 71 m 284 851 l 182 851 l 284 972 l 486 972 l 284 851 z "},"Ú":{"ha":608,"x_min":0,"x_max":486,"o":"m 0 972 l 122 972 l 122 122 l 365 122 l 365 972 l 486 972 l 486 122 q 451 36 486 71 q 365 0 415 0 l 122 0 q 36 36 71 0 q 0 122 0 71 l 0 972 m 284 1033 l 182 1033 l 284 1155 l 486 1155 l 284 1033 z "},"ú":{"ha":608,"x_min":0,"x_max":486,"o":"m 0 729 l 122 729 l 122 122 l 365 122 l 365 729 l 486 729 l 486 122 q 451 36 486 71 q 365 0 415 0 l 122 0 q 36 36 71 0 q 0 122 0 71 l 0 729 m 284 851 l 182 851 l 284 972 l 486 972 l 284 851 z "},"Ý":{"ha":608,"x_min":0,"x_max":486,"o":"m 0 972 l 122 972 l 122 486 l 365 486 l 365 972 l 486 972 l 486 486 q 451 400 486 436 q 365 365 415 365 l 304 365 l 304 0 l 182 0 l 182 365 l 122 365 q 36 400 71 365 q 0 486 0 436 l 0 972 m 284 1033 l 182 1033 l 284 1155 l 486 1155 l 284 1033 z "},"ý":{"ha":608,"x_min":0,"x_max":486,"o":"m 365 729 l 486 729 l 486 122 q 451 36 486 71 q 365 0 415 0 l 61 0 l 61 122 l 365 122 l 365 243 l 122 243 q 36 279 71 243 q 0 365 0 314 l 0 729 l 122 729 l 122 365 l 365 365 l 365 729 m 284 851 l 182 851 l 284 972 l 486 972 l 284 851 z "},"Ć":{"ha":608,"x_min":0,"x_max":486,"o":"m 365 304 l 486 304 l 486 122 q 451 36 486 71 q 365 0 415 0 l 122 0 q 36 36 71 0 q 0 122 0 71 l 0 851 q 36 937 0 901 q 122 972 71 972 l 365 972 q 451 937 415 972 q 486 851 486 901 l 486 669 l 365 669 l 365 851 l 122 851 l 122 122 l 365 122 l 365 304 m 284 1033 l 182 1033 l 284 1155 l 486 1155 l 284 1033 z "},"ć":{"ha":608,"x_min":0,"x_max":486,"o":"m 486 608 l 486 486 l 365 486 l 365 608 l 122 608 l 122 122 l 365 122 l 365 243 l 486 243 l 486 122 q 451 36 486 71 q 365 0 415 0 l 122 0 q 36 36 71 0 q 0 122 0 71 l 0 608 q 36 694 0 658 q 122 729 71 729 l 365 729 q 451 694 415 729 q 486 608 486 658 m 284 851 l 182 851 l 284 972 l 486 972 l 284 851 z "},"Ĺ":{"ha":608,"x_min":0,"x_max":486,"o":"m 0 972 l 122 972 l 122 122 l 486 122 l 486 0 l 0 0 l 0 972 m 101 1033 l 0 1033 l 101 1155 l 304 1155 l 101 1033 z "},"ĺ":{"ha":365,"x_min":0,"x_max":304,"o":"m 0 972 l 122 972 l 122 122 l 243 122 l 243 0 l 122 0 q 36 36 71 0 q 0 122 0 71 l 0 972 m 101 1033 l 0 1033 l 101 1155 l 304 1155 l 101 1033 z "},"Ń":{"ha":608,"x_min":0,"x_max":486,"o":"m 486 0 l 365 0 l 365 851 l 122 851 l 122 0 l 0 0 l 0 972 l 365 972 q 451 937 415 972 q 486 851 486 901 l 486 0 m 284 1033 l 182 1033 l 284 1155 l 486 1155 l 284 1033 z "},"ń":{"ha":608,"x_min":0,"x_max":486,"o":"m 486 0 l 365 0 l 365 608 l 122 608 l 122 0 l 0 0 l 0 729 l 365 729 q 451 694 415 729 q 486 608 486 658 l 486 0 m 284 851 l 182 851 l 284 972 l 486 972 l 284 851 z "},"Ŕ":{"ha":608,"x_min":0,"x_max":486,"o":"m 122 486 l 365 486 l 365 851 l 122 851 l 122 486 m 122 0 l 0 0 l 0 972 l 365 972 q 451 937 415 972 q 486 851 486 901 l 486 547 q 451 461 486 497 q 372 426 417 428 q 451 390 417 423 q 486 304 486 354 l 486 0 l 365 0 l 365 365 l 122 365 l 122 0 m 284 1033 l 182 1033 l 284 1155 l 486 1155 l 284 1033 z "},"ŕ":{"ha":608,"x_min":0,"x_max":486,"o":"m 486 426 l 365 426 l 365 608 l 122 608 l 122 0 l 0 0 l 0 729 l 365 729 q 451 694 415 729 q 486 608 486 658 l 486 426 m 284 851 l 182 851 l 284 972 l 486 972 l 284 851 z "},"Ś":{"ha":608,"x_min":0,"x_max":486,"o":"m 0 122 l 0 243 l 122 243 l 122 122 l 365 122 l 365 426 l 122 426 q 36 461 71 426 q 0 547 0 497 l 0 851 q 36 937 0 901 q 122 972 71 972 l 365 972 q 451 937 415 972 q 486 851 486 901 l 486 729 l 365 729 l 365 851 l 122 851 l 122 547 l 365 547 q 451 512 415 547 q 486 426 486 476 l 486 122 q 451 36 486 71 q 365 0 415 0 l 122 0 q 36 36 71 0 q 0 122 0 71 m 284 1033 l 182 1033 l 284 1155 l 486 1155 l 284 1033 z "},"ś":{"ha":608,"x_min":0,"x_max":486,"o":"m 0 122 l 0 182 l 122 182 l 122 122 l 365 122 l 365 304 l 122 304 q 36 340 71 304 q 0 426 0 375 l 0 608 q 36 694 0 658 q 122 729 71 729 l 365 729 q 451 694 415 729 q 486 608 486 658 l 486 547 l 365 547 l 365 608 l 122 608 l 122 426 l 365 426 q 451 390 415 426 q 486 304 486 354 l 486 122 q 451 36 486 71 q 365 0 415 0 l 122 0 q 36 36 71 0 q 0 122 0 71 m 284 851 l 182 851 l 284 972 l 486 972 l 284 851 z "},"Ź":{"ha":608,"x_min":0,"x_max":486,"o":"m 0 851 l 0 972 l 486 972 l 486 547 q 451 461 486 497 q 365 426 415 426 l 122 426 l 122 122 l 486 122 l 486 0 l 0 0 l 0 426 q 36 512 0 476 q 122 547 71 547 l 365 547 l 365 851 l 0 851 m 284 1033 l 182 1033 l 284 1155 l 486 1155 l 284 1033 z "},"ź":{"ha":608,"x_min":0,"x_max":486,"o":"m 0 608 l 0 729 l 486 729 l 486 426 q 451 340 486 375 q 365 304 415 304 l 122 304 l 122 122 l 486 122 l 486 0 l 0 0 l 0 304 q 36 390 0 354 q 122 426 71 426 l 365 426 l 365 608 l 0 608 m 284 851 l 182 851 l 284 972 l 486 972 l 284 851 z "},"Ǵ":{"ha":608,"x_min":0,"x_max":486,"o":"m 486 851 l 486 729 l 365 729 l 365 851 l 122 851 l 122 122 l 365 122 l 365 426 l 243 426 l 243 547 l 486 547 l 486 122 q 451 36 486 71 q 365 0 415 0 l 122 0 q 36 36 71 0 q 0 122 0 71 l 0 851 q 36 937 0 901 q 122 972 71 972 l 365 972 q 451 937 415 972 q 486 851 486 901 m 284 1033 l 182 1033 l 284 1155 l 486 1155 l 284 1033 z "},"ǵ":{"ha":608,"x_min":0,"x_max":486,"o":"m 365 608 l 122 608 l 122 122 l 365 122 l 365 608 m 486 729 l 486 -61 q 451 -147 486 -111 q 365 -182 415 -182 l 61 -182 l 61 -61 l 365 -61 l 365 0 l 122 0 q 36 36 71 0 q 0 122 0 71 l 0 608 q 36 694 0 658 q 122 729 71 729 l 486 729 m 284 851 l 182 851 l 284 972 l 486 972 l 284 851 z "},"Ḱ":{"ha":608,"x_min":0,"x_max":486,"o":"m 122 0 l 0 0 l 0 972 l 122 972 l 122 547 l 365 547 l 365 972 l 486 972 l 486 608 q 451 522 486 557 q 372 486 417 489 q 451 451 417 484 q 486 365 486 415 l 486 0 l 365 0 l 365 425 l 122 425 l 122 0 m 284 1033 l 182 1033 l 284 1155 l 486 1155 l 284 1033 z "},"ḱ":{"ha":608,"x_min":0,"x_max":486,"o":"m 122 0 l 0 0 l 0 972 l 122 972 l 122 425 l 365 425 l 365 729 l 486 729 l 486 486 q 451 400 486 436 q 372 365 417 367 q 451 329 417 362 q 486 243 486 293 l 486 0 l 365 0 l 365 304 l 122 304 l 122 0 m 101 1033 l 0 1033 l 101 1155 l 304 1155 l 101 1033 z "},"Ḿ":{"ha":729,"x_min":0,"x_max":608,"o":"m 122 0 l 0 0 l 0 972 l 486 972 q 572 937 537 972 q 608 851 608 901 l 608 0 l 486 0 l 486 851 l 365 851 l 365 0 l 243 0 l 243 851 l 122 851 l 122 0 m 345 1033 l 243 1033 l 345 1155 l 547 1155 l 345 1033 z "},"ḿ":{"ha":729,"x_min":0,"x_max":608,"o":"m 122 0 l 0 0 l 0 729 l 486 729 q 572 694 537 729 q 608 608 608 658 l 608 0 l 486 0 l 486 608 l 365 608 l 365 0 l 243 0 l 243 608 l 122 608 l 122 0 m 345 851 l 243 851 l 345 972 l 547 972 l 345 851 z "},"Ṕ":{"ha":608,"x_min":0,"x_max":486,"o":"m 122 486 l 365 486 l 365 851 l 122 851 l 122 486 m 122 0 l 0 0 l 0 972 l 365 972 q 451 937 415 972 q 486 851 486 901 l 486 486 q 451 400 486 436 q 365 365 415 365 l 122 365 l 122 0 m 284 1033 l 182 1033 l 284 1155 l 486 1155 l 284 1033 z "},"ṕ":{"ha":608,"x_min":0,"x_max":486,"o":"m 122 122 l 365 122 l 365 608 l 122 608 l 122 122 m 122 -182 l 0 -182 l 0 729 l 365 729 q 451 694 415 729 q 486 608 486 658 l 486 122 q 451 36 486 71 q 365 0 415 0 l 122 0 l 122 -182 m 284 851 l 182 851 l 284 972 l 486 972 l 284 851 z "},"˛":{"ha":486,"x_min":304,"x_max":486,"o":"m 486 -101 l 486 -182 l 385 -182 q 328 -159 351 -182 q 304 -101 304 -135 l 304 0 q 328 57 304 34 q 385 81 351 81 l 486 81 l 486 0 l 385 0 l 385 -101 l 486 -101 z "},"Ą":{"ha":608,"x_min":0,"x_max":486,"o":"m 122 365 l 365 365 l 365 851 l 122 851 l 122 365 m 365 79 l 365 243 l 122 243 l 122 0 l 0 0 l 0 851 q 36 937 0 901 q 122 972 71 972 l 365 972 q 451 937 415 972 q 486 851 486 901 l 486 0 l 385 0 l 385 -101 l 486 -101 l 486 -182 l 385 -182 q 328 -159 351 -182 q 304 -101 304 -135 l 304 0 q 328 57 304 34 q 365 79 344 74 z "},"ą":{"ha":608,"x_min":0,"x_max":486,"o":"m 122 122 l 365 122 l 365 365 l 122 365 l 122 122 m 304 0 l 122 0 q 36 36 71 0 q 0 122 0 71 l 0 365 q 36 451 0 415 q 122 486 71 486 l 365 486 l 365 608 l 0 608 q 36 694 0 658 q 122 729 71 729 l 365 729 q 451 694 415 729 q 486 608 486 658 l 486 0 l 385 0 l 385 -101 l 486 -101 l 486 -182 l 385 -182 q 328 -159 351 -182 q 304 -101 304 -135 l 304 0 z "},"Ę":{"ha":608,"x_min":0,"x_max":486,"o":"m 304 0 l 0 0 l 0 972 l 486 972 l 486 851 l 122 851 l 122 547 l 426 547 l 426 426 l 122 426 l 122 122 l 486 122 l 486 0 l 385 0 l 385 -101 l 486 -101 l 486 -182 l 385 -182 q 328 -159 351 -182 q 304 -101 304 -135 l 304 0 z "},"ę":{"ha":608,"x_min":0,"x_max":486,"o":"m 122 365 l 365 365 l 365 608 l 122 608 l 122 365 m 243 0 l 122 0 q 36 36 71 0 q 0 122 0 71 l 0 608 q 36 694 0 658 q 122 729 71 729 l 365 729 q 451 694 415 729 q 486 608 486 658 l 486 243 l 122 243 l 122 122 l 426 122 l 426 0 l 324 0 l 324 -101 l 426 -101 l 426 -182 l 324 -182 q 267 -159 291 -182 q 243 -101 243 -135 l 243 0 z "},"Į":{"ha":365,"x_min":0,"x_max":243,"o":"m 122 81 l 122 972 l 243 972 l 243 0 l 81 0 l 81 -101 l 182 -101 l 182 -182 l 81 -182 q 24 -159 47 -182 q 0 -101 0 -135 l 0 0 q 24 57 0 34 q 81 81 47 81 l 122 81 z "},"į":{"ha":365,"x_min":0,"x_max":243,"o":"m 122 81 l 122 729 l 243 729 l 243 0 l 81 0 l 81 -101 l 182 -101 l 182 -182 l 81 -182 q 24 -159 47 -182 q 0 -101 0 -135 l 0 0 q 24 57 0 34 q 81 81 47 81 l 122 81 m 243 851 l 122 851 l 122 972 l 243 972 l 243 851 z "},"Ų":{"ha":608,"x_min":0,"x_max":486,"o":"m 182 0 l 122 0 q 36 36 71 0 q 0 122 0 71 l 0 972 l 122 972 l 122 122 l 365 122 l 365 972 l 486 972 l 486 122 q 451 36 486 71 q 365 0 415 0 l 263 0 l 263 -101 l 365 -101 l 365 -182 l 263 -182 q 206 -159 230 -182 q 182 -101 182 -135 l 182 0 z "},"ų":{"ha":608,"x_min":0,"x_max":486,"o":"m 182 0 l 122 0 q 36 36 71 0 q 0 122 0 71 l 0 729 l 122 729 l 122 122 l 365 122 l 365 729 l 486 729 l 486 122 q 451 36 486 71 q 365 0 415 0 l 263 0 l 263 -101 l 365 -101 l 365 -182 l 263 -182 q 206 -159 230 -182 q 182 -101 182 -135 l 182 0 z "},"Ǫ":{"ha":608,"x_min":0,"x_max":486,"o":"m 122 122 l 365 122 l 365 851 l 122 851 l 122 122 m 182 0 l 122 0 q 36 36 71 0 q 0 122 0 71 l 0 851 q 36 937 0 901 q 122 972 71 972 l 365 972 q 451 937 415 972 q 486 851 486 901 l 486 122 q 451 36 486 71 q 365 0 415 0 l 263 0 l 263 -101 l 365 -101 l 365 -182 l 263 -182 q 206 -159 230 -182 q 182 -101 182 -135 l 182 0 z "},"ǫ":{"ha":608,"x_min":0,"x_max":486,"o":"m 122 122 l 365 122 l 365 608 l 122 608 l 122 122 m 182 0 l 122 0 q 36 36 71 0 q 0 122 0 71 l 0 608 q 36 694 0 658 q 122 729 71 729 l 365 729 q 451 694 415 729 q 486 608 486 658 l 486 122 q 451 36 486 71 q 365 0 415 0 l 263 0 l 263 -101 l 365 -101 l 365 -182 l 263 -182 q 206 -159 230 -182 q 182 -101 182 -135 l 182 0 z "},"Ł":{"ha":729,"x_min":0,"x_max":608,"o":"m 122 517 l 122 972 l 243 972 l 243 547 l 486 608 l 486 486 l 243 426 l 243 122 l 608 122 l 608 0 l 122 0 l 122 395 l 0 365 l 0 486 l 122 517 z "},"ł":{"ha":486,"x_min":0,"x_max":365,"o":"m 122 527 l 122 972 l 243 972 l 243 567 l 365 608 l 365 486 l 243 446 l 243 122 l 365 122 l 365 0 l 243 0 q 157 36 193 0 q 122 122 122 71 l 122 405 l 0 365 l 0 486 l 122 527 z "},"〒":{"ha":729,"x_min":0,"x_max":608,"o":"m 0 608 l 0 729 l 608 729 l 608 608 l 365 608 l 365 0 l 243 0 l 243 608 l 0 608 m 0 851 l 0 972 l 608 972 l 608 851 l 0 851 z "}}}
